<?xml version="1.0" standalone="no"?>
<!DOCTYPE svg PUBLIC "-//W3C//DTD SVG 1.1//EN" "http://www.w3.org/Graphics/SVG/1.1/DTD/svg11.dtd" >
<svg xmlns="http://www.w3.org/2000/svg">
<metadata></metadata>
<defs>
<font id="helvetica_neuebold" horiz-adv-x="1175" >
<font-face units-per-em="2048" ascent="1638" descent="-410" />
<missing-glyph horiz-adv-x="500" />
<glyph horiz-adv-x="0" />
<glyph horiz-adv-x="0" />
<glyph unicode="&#xd;" horiz-adv-x="569" />
<glyph horiz-adv-x="0" />
<glyph unicode="&#x9;" horiz-adv-x="569" />
<glyph unicode="&#xa;" horiz-adv-x="569" />
<glyph horiz-adv-x="0" />
<glyph unicode="!" horiz-adv-x="569" d="M125 0h321v315h-321v-315zM133 1069l78 -631h145l80 631v393h-303v-393z" />
<glyph unicode="&#x22;" horiz-adv-x="948" d="M174 805h219v657h-219v-657zM555 805h219v657h-219v-657z" />
<glyph unicode="#" horiz-adv-x="1138" d="M68 406h170l-58 -406h199l57 406h197l-55 -406h198l55 406h179v184h-152l35 254h178v184h-151l55 406h-199l-55 -406h-199l58 406h-199l-57 -406h-195v-184h170l-37 -254h-194v-184zM461 590l37 254h196l-35 -254h-198z" />
<glyph unicode="$" horiz-adv-x="1138" d="M0 475q20 -242 150 -366q129 -125 358 -142v-174h121v174q154 10 252 62q98 51 157 116q57 66 80 136q23 68 23 112q0 51 -6 117q-8 66 -48 131q-39 66 -120 127q-82 59 -234 100l-104 27v362q70 0 119 -57t51 -139h291q-6 106 -46 184q-39 78 -100 131q-61 51 -141 82 q-82 29 -174 39v158h-121v-158q-92 -6 -178 -35q-86 -31 -152 -84q-66 -55 -104 -135q-41 -80 -41 -184q0 -102 35 -170q35 -70 94 -115q57 -47 131 -74q74 -29 149 -49l39 -8l27 -10v-428q-94 18 -158 86q-63 68 -61 184h-289zM324 1087q0 43 16 76q14 31 41 54 q27 20 59 30q33 10 68 10v-333q-98 23 -141 59q-43 37 -43 104zM629 205v393q121 -33 172 -72q49 -41 49 -120q0 -49 -21 -84q-20 -37 -51 -62q-33 -25 -71 -37q-41 -14 -78 -18z" />
<glyph unicode="%" horiz-adv-x="2048" d="M154 1057q0 -84 18 -156q16 -74 57 -125q39 -53 105 -82q63 -31 158 -30q90 0 155 28q66 29 109 80q41 51 61 123q20 70 21 154q0 84 -17 159q-16 76 -55 133q-41 55 -104 89q-63 33 -160 32q-90 0 -156 -30q-66 -33 -108 -89q-43 -55 -64 -129q-20 -74 -20 -157z M362 1053q1 35 5 80q2 45 16 84t43 65q27 27 76 27q45 0 71 -29q25 -29 37 -70t17 -84q2 -45 2 -75q0 -33 -2 -72q-4 -41 -17 -76q-14 -37 -41 -61q-29 -25 -75 -25q-49 0 -76 25t-39 61q-12 35 -14 76t-3 74zM520 -43h178l844 1522h-174zM1210 375q1 -84 19 -158 q16 -74 57 -127q39 -55 105 -86q63 -31 157 -31q90 0 156 31q66 29 108 82q41 53 62 125q20 72 20 156t-16 157q-16 74 -55 129q-41 53 -105 86q-63 31 -159 31q-90 0 -156 -31t-109 -84t-63 -125t-21 -155zM1419 373q0 35 4 78q2 43 17 79q14 37 43 62q27 25 76 24 q45 0 71 -26q25 -29 37 -66q12 -39 16 -80q2 -43 3 -73q0 -33 -3 -74q-4 -43 -16 -80q-14 -39 -41 -65q-29 -27 -76 -27q-49 0 -75 27q-27 27 -39 65q-12 37 -15 80q-2 43 -2 76z" />
<glyph unicode="&#x26;" horiz-adv-x="1402" d="M66 410q0 -104 36 -185q37 -82 101 -137q63 -57 151 -86q86 -29 185 -29q125 0 225 43q98 43 186 129l119 -145h356l-297 346q61 78 97 170q35 92 45 191h-252q-6 -45 -19 -89q-12 -45 -34 -86l-189 232q111 59 187 147q74 88 73 217q0 86 -30 152q-33 66 -86 111 q-55 43 -127 65q-74 23 -158 23q-74 0 -141 -23q-70 -25 -123 -67q-53 -45 -84 -107q-33 -61 -33 -137q0 -96 41 -168q39 -72 98 -143q-63 -31 -123 -72q-59 -41 -104 -92q-47 -53 -74 -117q-27 -66 -26 -143zM342 403q0 45 18 82q16 37 46 68q29 31 65 53q37 23 76 39 l250 -305q-51 -57 -109 -92q-59 -37 -137 -37q-41 0 -78 16q-39 14 -67 41q-29 25 -46 62q-18 35 -18 73zM518 1155q0 57 39 94q39 35 92 35t94 -41q39 -41 39 -98q0 -80 -43 -125q-45 -45 -106 -84q-41 51 -78 100t-37 119z" />
<glyph unicode="'" horiz-adv-x="569" d="M176 805h219v657h-219v-657z" />
<glyph unicode="(" horiz-adv-x="606" d="M106 549q0 -242 72 -475q70 -233 199 -445h241q-117 223 -167 459q-53 236 -54 481q0 242 54 478q53 233 170 450h-244q-68 -98 -117 -215q-51 -117 -84 -242q-35 -125 -51 -249q-18 -127 -19 -242z" />
<glyph unicode=")" horiz-adv-x="606" d="M-12 -371h241q68 96 119 213t86 242q33 123 49 250q16 125 17 239q0 242 -70 478q-72 236 -201 446h-239q113 -223 166 -461t53 -483q0 -242 -53 -473q-55 -233 -168 -451z" />
<glyph unicode="*" horiz-adv-x="833" d="M45 1139l238 -80l-152 -201l137 -100l144 211l151 -211l135 100l-151 201l241 80l-55 157l-237 -90v256h-164v-256l-232 90z" />
<glyph unicode="+" horiz-adv-x="1228" d="M98 408h408v-408h219v408h408v219h-408v407h-219v-407h-408v-219z" />
<glyph unicode="," horiz-adv-x="569" d="M125 0h147q2 -33 -8 -63q-10 -33 -31 -58q-20 -27 -47 -45q-29 -18 -59 -24v-148q66 10 125 39q57 27 100 70t70 102q25 57 24 127v315h-321v-315z" />
<glyph unicode="-" horiz-adv-x="833" d="M109 434h616v250h-616v-250z" />
<glyph unicode="." horiz-adv-x="569" d="M123 0h321v315h-321v-315z" />
<glyph unicode="/" horiz-adv-x="759" d="M-20 -33h231l571 1530h-233z" />
<glyph unicode="0" horiz-adv-x="1138" d="M43 723q0 -215 43 -358q41 -145 113 -232q72 -86 168 -123q94 -37 200 -37q109 0 205 37q94 37 168 123q72 86 115 232q41 143 41 358q0 209 -41 352q-43 141 -115 228q-74 86 -168 122q-96 37 -205 37q-106 0 -200 -37q-96 -37 -168 -122q-72 -86 -113 -228 q-43 -143 -43 -352zM334 723q0 37 2 90q0 51 6 107q6 55 20 110q14 53 41 96q25 43 66 70q39 27 98 27t101 -27q41 -27 67 -70q27 -43 41 -96q12 -55 21 -110q6 -55 8 -107v-90q0 -61 -4 -148q-4 -88 -25 -167q-23 -82 -69 -140q-49 -57 -140 -57q-88 0 -135 57t-67 140 q-23 80 -27 167q-4 86 -4 148z" />
<glyph unicode="1" horiz-adv-x="1138" d="M152 930h360v-930h291v1434h-232q-12 -82 -51 -138q-39 -55 -94 -88q-57 -35 -127 -47q-72 -14 -147 -12v-219z" />
<glyph unicode="2" horiz-adv-x="1138" d="M43 0h1053v250h-678q53 74 123 129t143 104q74 47 147 97q72 49 130 110q57 59 92 137t34 187q0 104 -38 188q-41 84 -109 141t-156 89q-90 31 -188 30q-129 0 -227 -43q-100 -45 -166 -123q-66 -80 -99 -184q-33 -106 -28 -229h278q0 57 13 116q10 57 36 107 q27 47 72 78q43 29 107 28q94 0 155 -57q59 -59 60 -164q0 -66 -29 -117q-31 -51 -74 -92q-45 -41 -98 -73q-53 -35 -100 -68q-92 -63 -174 -125q-84 -61 -146 -133q-61 -74 -96 -166q-37 -92 -37 -217z" />
<glyph unicode="3" horiz-adv-x="1138" d="M37 494q-2 -125 37 -222q37 -96 106 -161q70 -68 170 -103q98 -35 219 -35q104 0 201 31q96 31 170 90t119 148q43 88 43 200q0 123 -68 211t-186 115v4q100 29 151 109q49 80 50 184q0 96 -43 170t-111 125q-70 51 -156 78q-86 25 -172 24q-111 0 -200 -35 q-90 -37 -154 -102q-66 -66 -100 -156q-37 -92 -41 -202h276q-2 111 55 184q55 72 166 72q80 0 142 -49q61 -49 61 -142q0 -61 -29 -98q-31 -37 -75 -55q-47 -20 -101 -25q-53 -4 -100 0v-205q53 0 113 -2q57 -4 106 -22q49 -20 82 -64q31 -43 31 -125q0 -104 -68 -164 q-68 -61 -166 -61q-63 0 -108 22q-47 23 -78 62q-31 37 -47 90q-16 51 -19 109h-276z" />
<glyph unicode="4" horiz-adv-x="1138" d="M33 332h606v-332h276v332h191v239h-191v863h-260l-622 -836v-266zM262 571l371 498h6v-498h-377z" />
<glyph unicode="5" horiz-adv-x="1138" d="M37 426q2 -113 47 -197q43 -86 117 -143t170 -84q94 -29 198 -29q109 -2 205 37q96 37 170 107q72 70 115 166q43 94 43 204q0 100 -29 191q-31 88 -86 153q-57 66 -139 105t-189 39q-86 0 -153 -25q-68 -27 -127 -86l-4 4l57 326h592v240h-801l-141 -793h262 q43 59 92 88q49 27 127 27q59 0 105 -21q45 -20 77 -57q33 -37 50 -86q16 -49 16 -105q0 -53 -16 -102q-18 -51 -50 -88q-33 -39 -77 -61q-47 -25 -105 -25q-98 0 -162 59q-63 57 -73 156h-291z" />
<glyph unicode="6" horiz-adv-x="1138" d="M43 713q0 -137 25 -269q25 -133 88 -237t170 -168q106 -66 268 -66q113 0 205 41q92 39 159 111q66 70 103 166q35 94 35 205q0 86 -27 170t-84 149q-61 68 -149 109q-88 39 -181 39q-104 0 -184 -37t-139 -123l-4 4q2 59 16 135t45 143q31 66 84 113q51 45 129 45 q76 0 127 -53t66 -125h276q-12 96 -51 170t-100 125q-61 49 -142 76q-80 27 -172 26q-154 0 -260 -67q-106 -68 -174 -174q-68 -109 -98 -242q-31 -133 -31 -266zM354 477q0 53 15 103q14 47 43 84t73 59q43 20 101 20q55 1 98 -22q41 -25 68 -62q27 -39 41 -86 q12 -49 12 -100q0 -49 -14 -96t-43 -84t-68 -60q-41 -23 -94 -22q-55 0 -99 22q-43 23 -71 62q-31 37 -45 86q-16 47 -17 96z" />
<glyph unicode="7" horiz-adv-x="1138" d="M80 1163h680q-205 -248 -330 -545q-127 -297 -151 -618h311q2 143 35 309q31 166 90 328q57 162 145 305q86 143 199 242v250h-979v-271z" />
<glyph unicode="8" horiz-adv-x="1138" d="M29 420q0 -117 47 -201q45 -84 123 -139q76 -55 174 -80q96 -27 200 -27q100 0 197 29q96 27 172 82t123 139q45 84 45 199q0 135 -70 229q-70 92 -198 121v4q104 35 157 115q51 80 52 186q0 53 -25 121q-25 66 -80 125q-57 57 -149 98t-226 41q-88 0 -174 -24 q-86 -25 -153 -74q-70 -49 -113 -123t-43 -170q0 -106 53 -186t158 -109v-4q-129 -31 -199 -123q-72 -92 -71 -229zM319 434q0 111 74 170q74 57 180 58q51 0 97 -17q43 -16 78 -47q33 -31 53 -72q18 -43 18 -94q0 -53 -18 -98t-51 -76q-35 -33 -78 -49q-45 -18 -99 -19 q-51 0 -98 19q-47 16 -80 49q-35 31 -55 76t-21 100zM352 1044q1 49 19 86q16 37 47 62t71 39q39 12 82 12q68 0 111 -20q41 -20 66 -52q23 -31 30 -63q8 -35 8 -64q0 -92 -61 -139q-61 -49 -154 -49q-88 0 -153 49q-66 47 -66 139z" />
<glyph unicode="9" horiz-adv-x="1138" d="M43 938q0 -86 27 -170t84 -150q61 -68 149 -106q88 -41 180 -41q104 0 185 37q80 37 139 123l4 -4q-4 -59 -16 -135q-14 -76 -45 -142q-31 -68 -82 -112q-51 -47 -131 -48q-76 0 -127 54q-51 53 -66 125h-276q12 -94 51 -168t100 -125t141 -76q80 -27 172 -27 q154 0 261 68q106 66 174 174q68 106 98 240q31 133 31 266q0 135 -25 268t-88 240q-63 104 -168 170q-106 63 -270 63q-113 0 -205 -41t-158 -110q-68 -72 -102 -166q-37 -96 -37 -207zM334 961q0 49 14 96t43 84t70 59q41 23 92 23q55 0 98 -23t74 -59q29 -39 45 -86 q14 -49 14 -99q0 -53 -14 -100q-14 -49 -43 -86t-72 -57q-43 -23 -102 -23q-55 0 -96 25q-43 23 -70 61q-27 37 -39 86q-14 47 -14 99z" />
<glyph unicode=":" horiz-adv-x="569" d="M125 0h321v315h-321v-315zM125 725h321v315h-321v-315z" />
<glyph unicode=";" horiz-adv-x="569" d="M125 0h147q2 -33 -8 -63q-10 -33 -31 -58q-20 -27 -47 -45q-29 -18 -59 -24v-148q66 10 125 39q57 27 100 70t70 102q25 57 24 127v315h-321v-315zM125 725h321v315h-321v-315z" />
<glyph unicode="&#x3c;" horiz-adv-x="1228" d="M94 397l1041 -411v233l-752 299l752 299v236l-1041 -414v-242z" />
<glyph unicode="=" horiz-adv-x="1228" d="M98 188h1035v220h-1035v-220zM98 627h1035v219h-1035v-219z" />
<glyph unicode="&#x3e;" horiz-adv-x="1228" d="M94 -14l1041 411v242l-1041 414v-236l752 -299l-752 -299v-233z" />
<glyph unicode="?" horiz-adv-x="1138" d="M66 991h301q0 55 12 105q12 47 39 84q25 35 65 57q39 20 95 20q82 0 129 -45q45 -45 45 -139q2 -55 -19 -92q-23 -37 -57 -68q-35 -31 -76 -61q-41 -31 -78 -72q-37 -43 -63 -102q-29 -59 -35 -148v-92h276v78q8 61 41 102q31 41 72 74q41 31 88 64q45 31 84 75 q37 45 64 109q25 63 24 162q0 59 -24 129q-27 68 -86 127t-156 100q-98 39 -244 39q-113 0 -203 -37q-92 -39 -155 -106q-66 -68 -101 -160q-37 -92 -38 -203zM395 0h322v315h-322v-315z" />
<glyph unicode="@" horiz-adv-x="1638" d="M74 731q0 -164 61 -303q61 -141 170 -244q106 -102 250 -159q143 -57 307 -58q193 0 357 86q164 84 268 244h-172q-80 -80 -195 -123q-117 -45 -246 -45q-131 0 -241 43q-113 43 -193 123q-80 78 -125 188q-45 109 -45 244q0 129 41 242q41 111 117 192q76 80 184 127 q106 45 238 45q117 0 219 -33q100 -33 176 -96q74 -66 117 -157q43 -94 43 -218q0 -82 -21 -151q-23 -70 -55 -119q-35 -51 -78 -78q-45 -29 -88 -28q-18 0 -26 14q-8 12 -9 33q0 20 7 45q4 23 10 43l129 528h-168l-33 -110q-35 80 -104 112q-70 31 -135 31q-100 0 -183 -45 q-84 -45 -141 -119q-59 -74 -90 -168q-33 -94 -33 -190q0 -72 27 -135q25 -63 69 -111q43 -49 103 -76q57 -29 123 -29t125 29t96 90h4q4 -51 45 -84q39 -33 104 -32q49 0 131 34q80 33 160 105q78 72 135 184q55 113 56 270q0 141 -60 258q-59 115 -157 197 q-98 80 -228 125q-129 45 -268 45q-160 0 -301 -59t-248 -162q-106 -102 -168 -242q-61 -141 -61 -303zM596 653q0 52 18 105t54 98q33 43 80 72q47 27 102 26q66 0 113 -49q45 -49 45 -125q0 -53 -19 -108q-18 -55 -51 -99q-35 -45 -80 -73q-47 -29 -102 -29q-72 0 -115 51 q-45 49 -45 131z" />
<glyph unicode="A" horiz-adv-x="1402" d="M-12 0h323l115 326h547l110 -326h334l-547 1462h-329zM510 565l190 537h5l184 -537h-379z" />
<glyph unicode="B" horiz-adv-x="1441" d="M141 0h709q98 0 192 25q92 25 166 75q72 51 115 133q43 80 43 191q0 137 -66 235q-68 96 -202 136q98 47 149 120q49 74 49 185q0 102 -32 172q-35 70 -97 112q-61 41 -147 60q-86 18 -191 18h-688v-1462zM463 250v401h350q104 0 168 -47q63 -49 63 -162q0 -57 -18 -94 q-20 -37 -53 -57q-33 -23 -76 -31q-43 -10 -90 -10h-344zM463 870v342h301q43 0 84 -6q39 -8 70 -26t49 -52q18 -33 18 -84q0 -92 -55 -133t-142 -41h-325z" />
<glyph unicode="C" horiz-adv-x="1517" d="M78 725q0 -160 49 -297q49 -139 141 -242q92 -102 228 -159q133 -59 301 -60q135 0 247 41q113 41 197 119t135 188q51 111 64 248h-312q-18 -147 -100 -237q-84 -90 -231 -90q-109 0 -185 43q-76 41 -123 110q-47 70 -67 158q-23 86 -23 178q0 96 23 186q20 90 67 162 q47 70 123 113q76 41 185 41q59 0 114 -19q53 -20 97 -55q43 -35 71 -80q29 -47 37 -102h311q-14 127 -69 225t-139 166q-86 66 -193 100q-109 35 -229 35q-168 0 -301 -59q-135 -59 -228 -164q-92 -104 -141 -244q-49 -141 -49 -305z" />
<glyph unicode="D" horiz-adv-x="1517" d="M141 0h631q168 0 293 57q123 55 207 154q82 98 123 233t41 295q0 182 -50 318q-51 135 -139 225q-90 90 -211 135q-123 45 -264 45h-631v-1462zM463 270v922h229q119 0 201 -33q80 -35 129 -98t72 -152q20 -90 20 -200q0 -121 -31 -205t-82 -135q-51 -53 -116 -76 q-66 -23 -135 -23h-287z" />
<glyph unicode="E" horiz-adv-x="1327" d="M141 0h1110v270h-788v359h708v250h-708v313h772v270h-1094v-1462z" />
<glyph unicode="F" horiz-adv-x="1214" d="M141 0h322v604h612v250h-612v338h706v270h-1028v-1462z" />
<glyph unicode="G" horiz-adv-x="1554" d="M78 725q0 -160 49 -297q49 -139 141 -242q92 -102 228 -159q133 -59 301 -60q106 0 211 45q104 43 190 154l33 -166h205v791h-615v-240h324q-14 -154 -101 -234q-87 -81 -243 -81h-4q-109 0 -185 43q-76 41 -123 110q-47 70 -67 158q-23 86 -23 178q0 96 23 186 q20 90 67 162q47 70 123 113q76 41 185 41q117 0 198 -62q82 -61 111 -184h307q-12 125 -67 221t-140 162q-86 66 -190 100q-106 33 -219 33q-168 0 -301 -59q-135 -59 -228 -164q-92 -104 -141 -244q-49 -141 -49 -305z" />
<glyph unicode="H" horiz-adv-x="1517" d="M141 0h322v631h592v-631h321v1462h-321v-561h-592v561h-322v-1462z" />
<glyph unicode="I" horiz-adv-x="604" d="M141 0h322v1462h-322v-1462z" />
<glyph unicode="J" horiz-adv-x="1138" d="M29 418q0 -121 41 -205q41 -86 108 -139q68 -55 154 -80q86 -27 178 -27q164 0 260 51q96 49 148 125q51 74 65 160t14 158v1001h-321v-987q0 -39 -2 -80q-4 -43 -19 -78q-16 -37 -51 -59q-34 -22 -93 -22h-5q-57 0 -92 18q-37 18 -58 51q-20 31 -28 76t-9 98v66h-290 v-127z" />
<glyph unicode="K" horiz-adv-x="1478" d="M141 0h322v471l184 186l440 -657h404l-627 885l572 577h-402l-571 -606v606h-322v-1462z" />
<glyph unicode="L" horiz-adv-x="1214" d="M141 0h1035v270h-713v1192h-322v-1462z" />
<glyph unicode="M" horiz-adv-x="1857" d="M141 0h301v1026h4l359 -1026h248l358 1036h4v-1036h301v1462h-452l-324 -1005h-4l-342 1005h-453v-1462z" />
<glyph unicode="N" horiz-adv-x="1517" d="M141 0h301v979h4l609 -979h321v1462h-301v-981h-4l-610 981h-320v-1462z" />
<glyph unicode="O" horiz-adv-x="1593" d="M78 725q0 -160 49 -297q49 -139 141 -242q92 -102 228 -159q133 -59 301 -60q170 0 303 60q133 57 225 159t141 242q49 137 50 297q0 164 -50 305q-49 139 -141 244q-92 104 -225 164q-133 59 -303 59q-168 0 -301 -59q-135 -59 -228 -164q-92 -104 -141 -244 q-49 -141 -49 -305zM399 725q0 96 23 186q20 90 67 162q47 70 123 113q76 41 185 41t184 -41q76 -43 123 -113q47 -72 70 -162q20 -90 20 -186q0 -92 -20 -178q-23 -88 -70 -158t-123 -110q-76 -43 -184 -43q-109 0 -185 43q-76 41 -123 110q-47 70 -67 158q-23 86 -23 178z " />
<glyph unicode="P" horiz-adv-x="1366" d="M141 0h322v524h338q137 0 233 41q96 39 158 105q59 66 88 151q27 84 27 172q0 90 -27 174q-29 84 -88 150q-61 66 -158 106q-96 39 -233 39h-660v-1462zM463 774v438h250q55 0 106 -8t90 -30q39 -25 64 -68q22 -41 22 -107v-6q0 -70 -22 -112q-25 -43 -64 -66 q-39 -25 -90 -33t-106 -8h-250z" />
<glyph unicode="Q" horiz-adv-x="1593" d="M78 725q0 -160 49 -297q49 -139 141 -242q92 -102 228 -159q133 -59 301 -60q209 0 354 84l207 -186l149 155l-182 166q92 104 141 242q49 137 50 297q0 164 -50 305q-49 139 -141 244q-92 104 -225 164q-133 59 -303 59q-168 0 -301 -59q-135 -59 -228 -164 q-92 -104 -141 -244q-49 -141 -49 -305zM399 725q0 96 23 186q20 90 67 162q47 70 123 113q76 41 185 41t184 -41q76 -43 123 -113q47 -72 70 -162q20 -90 20 -186q0 -117 -25 -199t-65 -137l-166 152l-150 -160l138 -125q-16 -16 -56 -18q-39 -2 -73 -2q-109 0 -185 43 q-76 41 -123 110q-47 70 -67 158q-23 86 -23 178z" />
<glyph unicode="R" horiz-adv-x="1478" d="M141 0h322v571h321q121 0 174 -53t70 -168q12 -88 19 -184q6 -96 32 -166h322q-23 31 -33 76q-12 43 -16 92q-6 49 -9 96l-4 82q-4 55 -14 111q-12 55 -37 102q-25 45 -63 80q-39 33 -99 49v4q123 49 179 144q53 94 53 223q0 84 -29 158q-31 72 -86 126q-57 55 -135 89 q-78 30 -172 30h-6h-789v-1462zM463 801v411h352q111 0 166 -47q55 -49 55 -155q0 -111 -55 -160t-166 -49h-352z" />
<glyph unicode="S" horiz-adv-x="1329" d="M49 485v-10q0 -129 49 -223q51 -98 140 -162q86 -63 200 -92q113 -31 234 -31q150 0 264 35q113 35 190 98q76 61 115 148q39 86 39 186q0 123 -51 203q-53 78 -125 125t-143 69q-74 20 -115 29l-221 58q-86 23 -133 45q-49 23 -66 49q-16 27 -16 69q0 47 20 78t53 51 q31 20 70 29q39 8 78 8q59 0 110 -10q49 -10 88 -35t64 -67q23 -43 27 -109h311q0 127 -47 217q-49 88 -131 146q-82 57 -187 84q-102 24 -212 24h-9q-98 0 -196 -27t-177 -81q-78 -55 -125 -138q-49 -84 -49 -196q0 -100 39 -170q37 -72 99 -119q61 -47 139 -76 q78 -31 160 -51q80 -23 157 -41q78 -18 139 -43t101 -61q37 -37 37 -97q0 -55 -29 -90q-29 -37 -72 -57t-92 -27q-49 -8 -92 -8q-63 0 -123 16q-59 14 -102 48q-45 31 -72 81q-27 51 -27 125h-311z" />
<glyph unicode="T" horiz-adv-x="1251" d="M27 1192h438v-1192h321v1192h439v270h-1198v-270z" />
<glyph unicode="U" horiz-adv-x="1517" d="M135 553q0 -299 164 -442q162 -143 459 -144q293 0 459 146q166 143 165 440v909h-321v-909q0 -164 -66 -240q-65 -77 -233 -77h-4q-98 0 -156 28q-59 27 -92 72q-33 43 -43 100t-10 117v909h-322v-909z" />
<glyph unicode="V" horiz-adv-x="1290" d="M-14 1462l473 -1462h362l486 1462h-332l-330 -1028h-4l-326 1028h-329z" />
<glyph unicode="W" horiz-adv-x="1933" d="M6 1462l387 -1462h326l244 995h4l247 -995h320l393 1462h-315l-240 -1007h-4l-250 1007h-301l-254 -995h-4l-231 995h-322z" />
<glyph unicode="X" horiz-adv-x="1366" d="M-10 0h360l326 506l319 -506h383l-510 764l469 698h-352l-297 -467l-287 467h-372l471 -696z" />
<glyph unicode="Y" horiz-adv-x="1366" d="M-16 1462l536 -893v-569h322v561l542 901h-358l-340 -577l-342 577h-360z" />
<glyph unicode="Z" horiz-adv-x="1327" d="M47 0h1233v270h-805l785 938v254h-1151v-270h722l-784 -938v-254z" />
<glyph unicode="[" horiz-adv-x="681" d="M139 -371h541v230h-250v1409h250v229h-541v-1868z" />
<glyph unicode="\" horiz-adv-x="759" d="M-20 1497l569 -1530h233l-571 1530h-231z" />
<glyph unicode="]" horiz-adv-x="681" d="M2 -141v-230h541v1868h-541v-229h250v-1409h-250z" />
<glyph unicode="^" horiz-adv-x="1228" d="M125 645h240l249 563l250 -563h240l-352 789h-275z" />
<glyph unicode="_" horiz-adv-x="1024" d="M0 -152v-102h1024v102h-1024z" />
<glyph unicode="`" horiz-adv-x="530" d="M-96 1481h319l197 -291h-203z" />
<glyph unicode="a" d="M66 289q0 -82 28 -142q27 -59 76 -98t115 -57t141 -19q98 0 192 29t164 100q2 -27 9 -51q4 -27 12 -51h295q-20 33 -29 98q-8 66 -8 138v550q0 96 -43 156q-43 57 -111 90t-149 45q-82 10 -162 10q-88 0 -174 -16q-88 -18 -158 -59t-114 -109q-45 -68 -52 -170h291 q8 86 57 123t136 37q39 0 73 -4q33 -6 60 -21q25 -16 41 -43q14 -29 14 -75v-6q0 -41 -27 -62q-29 -25 -77 -37q-49 -12 -113 -18q-63 -6 -129 -17q-66 -10 -129 -26q-66 -18 -115 -54q-51 -35 -82 -92q-32 -57 -32 -144v-5zM356 301q0 41 15 68q14 27 39 45q23 16 55 26 q31 10 63 17q35 6 70 10t68 10q31 6 59 17q27 8 45 24v-108q0 -25 -4 -66q-6 -41 -29 -80q-23 -41 -69 -69q-47 -29 -133 -29q-35 0 -68 6t-57 23q-25 14 -39 41t-15 65z" />
<glyph unicode="b" horiz-adv-x="1251" d="M111 0h276v135h4q47 -88 139 -125t209 -37q80 0 158 33t141 100q61 68 101 175q39 104 39 249t-39 252q-39 104 -101 172q-63 68 -141 101q-76 32 -153 32h-5q-98 0 -188 -36q-92 -39 -145 -121h-5v532h-290v-1462zM391 528q0 68 15 129q14 61 45 109q31 47 77 76 q45 26 106 26h5q66 0 113 -26q45 -29 75 -76q31 -47 45 -109q14 -61 15 -129q-1 -66 -15 -127t-45 -108t-75 -74q-47 -29 -113 -29q-63 0 -111 29q-47 27 -77 74q-31 47 -45 108t-15 127z" />
<glyph unicode="c" d="M78 514q0 -119 39 -217q39 -100 108 -172q70 -72 170 -111q98 -41 217 -41q211 0 346 111t164 322h-280q-14 -98 -70 -156q-57 -59 -162 -60q-68 0 -114 31q-47 31 -74 80q-29 47 -41 107q-12 59 -12 116q0 59 12 121q12 59 43 111q29 49 76 82q46 30 112 30h4 q186 0 215 -182h285q-6 102 -49 178q-43 74 -111 125q-70 49 -155 74q-85 24 -176 24h-7q-129 0 -229 -43t-170 -118q-70 -78 -104 -183q-37 -106 -37 -229z" />
<glyph unicode="d" horiz-adv-x="1251" d="M66 539q0 -111 30 -213q29 -102 88 -181q57 -80 148 -125q90 -47 209 -47q104 0 188 39q82 37 133 123h4v-135h277v1462h-291v-532h-4q-49 78 -133 119q-84 38 -175 38h-5q-117 0 -205 -45q-88 -47 -146 -122q-59 -76 -88 -175q-30 -97 -30 -199v-7zM356 530q0 66 15 127 q12 59 43 107q29 47 78 76q47 28 115 28h5q72 0 119 -28q47 -29 78 -74q29 -47 41 -107q12 -61 12 -127q0 -65 -12 -126t-41 -109q-29 -49 -76 -78q-49 -29 -121 -29q-68 0 -114 31q-49 29 -80 78q-33 47 -47 109q-14 61 -15 122z" />
<glyph unicode="e" d="M59 528q0 -123 39 -225q37 -102 107 -176t170 -113q100 -41 225 -41q180 0 307 82t189 273h-256q-14 -49 -78 -92q-63 -45 -152 -46q-123 0 -188 64q-66 63 -72 205h764q2 27 2 54q0 94 -22 181q-29 113 -93 201q-66 88 -165 141q-100 51 -236 51q-121 0 -219 -43 q-100 -43 -172 -116q-72 -76 -111 -178t-39 -222zM350 643q2 31 15 70q10 39 38 73q27 35 74 60q43 22 109 22h6q106 0 160 -57q51 -57 71 -168h-473z" />
<glyph unicode="f" horiz-adv-x="681" d="M0 864h174v-864h291v864h201v195h-201v63q0 66 27 95q24 26 79 26h4q55 0 107 -6v217q-37 2 -76 6q-39 2 -78 2q-178 0 -266 -90t-88 -231v-82h-174v-195z" />
<glyph unicode="g" horiz-adv-x="1251" d="M78 563q0 -109 26 -205q25 -98 80 -170q55 -74 142 -114q86 -43 204 -43q96 0 185 41q86 39 133 123h4v-140v-8q0 -108 -53 -178q-57 -74 -181 -74q-78 0 -137 33q-59 31 -80 113h-288q6 -90 51 -154q43 -66 110 -106q66 -41 148 -60q80 -20 158 -20q182 0 290 49 q109 49 166 121q57 70 76 151q16 82 16 146v991h-276v-141h-4q-53 92 -131 131q-78 38 -180 38h-5q-111 0 -194 -43q-86 -43 -143 -114q-57 -74 -86 -168q-31 -96 -31 -199zM369 567q0 59 14 115q12 53 43 96q29 41 74 66q41 24 99 24h5q72 0 119 -26q47 -27 76 -72t41 -102 q12 -59 12 -125q0 -57 -14 -109q-16 -53 -47 -94t-78 -66q-45 -24 -104 -24h-5q-67 0 -112 29t-72 73q-29 45 -39 103q-12 55 -12 112z" />
<glyph unicode="h" horiz-adv-x="1214" d="M111 0h290v555q0 162 54 233q53 70 172 70q104 0 145 -63q41 -66 41 -197v-598h291v651q0 98 -17 180q-18 80 -61 138q-43 55 -117 88q-74 30 -185 30h-7q-82 0 -168 -40q-86 -43 -141 -136h-7v551h-290v-1462z" />
<glyph unicode="i" horiz-adv-x="528" d="M119 0h291v1059h-291v-1059zM119 1223h291v239h-291v-239z" />
<glyph unicode="j" horiz-adv-x="569" d="M-37 -123v-239q41 -8 92 -9q111 0 183 21q72 18 114 59q41 39 60 98q16 59 16 142v1110h-291v-1096q0 -59 -33 -76q-35 -18 -79 -18q-39 0 -62 8zM137 1223h291v239h-291v-239z" />
<glyph unicode="k" d="M137 0h291v365l113 108l290 -473h353l-445 670l400 389h-344l-367 -381v784h-291v-1462z" />
<glyph unicode="l" horiz-adv-x="528" d="M119 0h291v1462h-291v-1462z" />
<glyph unicode="m" horiz-adv-x="1855" d="M119 0h291v614q0 78 22 127q23 47 55 74q31 25 66 35q33 8 53 8q70 0 107 -22q35 -25 51 -64q14 -39 16 -84q2 -47 2 -94v-594h291v590q0 49 8 98q6 47 29 86q20 37 59 62q35 22 94 22h5q61 0 98 -20q35 -20 53 -56q18 -35 23 -82q4 -47 4 -100v-600h291v709 q0 102 -29 176q-29 72 -80 116q-51 45 -123 66q-72 20 -155 20q-111 0 -191 -53q-82 -53 -129 -123q-43 98 -125 138q-82 38 -179 38h-5q-104 0 -184 -45q-82 -45 -140 -127h-4v144h-274v-1059z" />
<glyph unicode="n" horiz-adv-x="1214" d="M111 0h290v555q0 162 54 233q53 70 172 70q104 0 145 -63q41 -66 41 -197v-598h291v651q0 98 -17 180q-18 80 -61 138q-43 55 -117 88q-74 30 -185 30h-7q-92 0 -180 -40q-88 -43 -144 -136h-6v148h-276v-1059z" />
<glyph unicode="o" horiz-adv-x="1251" d="M78 528q0 -127 39 -229t110 -174q72 -74 172 -113t226 -39q125 0 227 39q100 39 172 113q72 72 111 174t39 229t-39 232q-39 102 -111 176q-72 72 -172 113q-99 38 -221 38h-6q-125 0 -226 -38q-100 -41 -172 -113q-72 -74 -110 -176q-39 -104 -39 -232zM369 528 q0 64 12 125t43 109q29 47 78 78q47 28 118 28h5q74 0 125 -28q49 -31 79 -78q29 -47 41 -109q12 -61 13 -125q0 -63 -13 -122q-12 -61 -41 -109q-31 -49 -79 -78q-51 -29 -125 -29t-123 29t-78 78q-31 47 -43 109q-12 59 -12 122z" />
<glyph unicode="p" horiz-adv-x="1251" d="M111 -371h290v502h5q53 -78 137 -117q82 -41 180 -41q117 0 205 45q86 45 145 121q57 76 86 174t29 205q0 113 -29 217q-29 102 -88 180t-149 125t-215 47q-98 0 -181 -38q-82 -39 -135 -125h-4v135h-276v-1430zM391 526q0 66 12 127t43 109q29 47 78 78q45 28 114 28h5 q70 0 119 -28q47 -31 78 -78q31 -49 45 -111q12 -61 12 -125q0 -63 -12 -125q-12 -61 -41 -106q-31 -47 -78 -76q-49 -29 -121 -29q-70 0 -119 29t-77 76q-31 45 -43 106q-14 61 -15 125z" />
<glyph unicode="q" horiz-adv-x="1251" d="M66 522q0 -154 43 -258q43 -106 108 -170q66 -66 145 -92q78 -29 152 -29q98 0 191 37q92 37 143 123h4v-504h291v1430h-277v-135h-4q-49 88 -135 127q-86 36 -181 36h-5q-121 0 -209 -47q-90 -47 -150 -125q-59 -80 -88 -182q-28 -99 -28 -204v-7zM356 528q1 66 15 127 q12 59 43 109q31 47 80 76q47 28 115 28h5q68 0 117 -30q47 -31 76 -80t43 -111q12 -61 12 -123q0 -66 -12 -125q-14 -61 -43 -106q-31 -47 -78 -74q-49 -29 -121 -29t-119 29q-49 29 -77 78q-31 47 -43 109q-12 59 -13 122z" />
<glyph unicode="r" horiz-adv-x="796" d="M111 0h290v477q0 72 15 133q14 61 49 109q33 45 88 72q53 26 129 26h6q27 0 55 -2l50 -8v270q-35 10 -64 10q-55 0 -106 -16t-97 -45q-45 -31 -80 -72q-35 -43 -55 -92h-4v197h-276v-1059z" />
<glyph unicode="s" horiz-adv-x="1099" d="M59 344q4 -106 50 -176q43 -72 112 -115q68 -43 156 -61t180 -19q90 0 178 19q86 16 154 59t110 115q41 70 41 174q0 74 -28 125q-29 49 -76 84q-47 33 -107 53q-61 20 -124 35l-121 27q-59 12 -105 28q-47 14 -76 39q-28 24 -28 61q0 36 16 56q16 18 41 29q23 10 51 14 q29 2 54 2q78 0 135 -29q57 -31 63 -114h277q-8 98 -49 163q-43 63 -107 103q-63 39 -143 55q-82 16 -168 16t-168 -14q-82 -16 -148 -53q-66 -39 -104 -105q-41 -66 -41 -167q0 -70 29 -117q29 -49 75 -80q47 -33 109 -51q59 -20 123 -35q156 -33 244 -66q86 -33 86 -98 q0 -39 -19 -63q-18 -27 -45 -41q-29 -16 -61 -23q-35 -8 -66 -8q-43 0 -82 10q-41 10 -71 33q-31 20 -50 55q-20 33 -20 80h-277z" />
<glyph unicode="t" horiz-adv-x="720" d="M12 864h176v-624q0 -80 27 -129t74 -76q45 -27 106 -35q59 -10 127 -10q43 0 88 2t82 8v225q-20 -4 -43 -6t-47 -2q-74 0 -98 25q-25 25 -25 98v524h213v195h-213v317h-291v-317h-176v-195z" />
<glyph unicode="u" horiz-adv-x="1214" d="M111 408q0 -98 18 -179q16 -82 59 -137q43 -57 119 -88q74 -31 191 -31q92 0 180 41t143 133h6v-147h277v1059h-291v-555q0 -162 -53 -232q-52 -71 -169 -71h-3q-104 0 -146 65q-41 63 -41 195v598h-290v-651z" />
<glyph unicode="v" horiz-adv-x="1064" d="M10 1059l363 -1059h323l359 1059h-289l-223 -723h-4l-224 723h-305z" />
<glyph unicode="w" horiz-adv-x="1667" d="M12 1059l336 -1059h301l180 711h5l188 -711h299l334 1059h-299l-195 -717h-4l-180 717h-283l-176 -719h-4l-195 719h-307z" />
<glyph unicode="x" horiz-adv-x="1099" d="M0 0h326l221 334l221 -334h332l-391 563l348 496h-322l-184 -277l-186 277h-332l348 -502z" />
<glyph unicode="y" horiz-adv-x="1062" d="M-10 1059l370 -993q12 -31 13 -66q0 -47 -27 -86q-29 -39 -86 -45q-14 -1 -29 -1l-57 3l-84 8v-239q45 -4 90 -7q43 -4 88 -4q150 0 234 56q84 55 131 184l442 1190h-301l-231 -725h-4l-240 725h-309z" />
<glyph unicode="z" horiz-adv-x="1062" d="M45 0h973v219h-590l551 621v219h-893v-219h510l-551 -621v-219z" />
<glyph unicode="{" horiz-adv-x="681" d="M-16 473q23 0 55 -8q33 -10 61 -29q29 -20 50 -53q20 -33 20 -80v-397q0 -70 27 -121q27 -53 65 -86q37 -35 82 -51q43 -18 78 -19h260v230h-111q-37 0 -57 14q-23 14 -35 37q-12 20 -14 47q-4 27 -4 49v328q0 66 -23 108q-25 41 -55 68q-33 25 -68 37q-35 10 -57 12v6 q23 2 57 13q35 10 68 36q31 25 55 72q23 45 23 121v311q0 25 4 51q2 27 14 50q12 20 35 34q20 14 57 15h111v229h-260q-35 0 -78 -16q-45 -18 -82 -51q-39 -35 -65 -87q-27 -53 -27 -122v-385q0 -51 -20 -86q-20 -37 -50 -58q-29 -23 -61 -30q-33 -10 -55 -11v-178z" />
<glyph unicode="|" horiz-adv-x="456" d="M119 -436h219v2046h-219v-2046z" />
<glyph unicode="}" horiz-adv-x="681" d="M0 -141v-230h260q35 0 80 19q43 16 82 51q37 33 63 86q27 51 27 121v397q0 47 20 80t50 53q29 18 61 29q33 8 57 8v178q-25 0 -57 11q-33 8 -61 30q-29 20 -50 58q-20 35 -20 86v385q0 70 -27 122q-27 51 -63 87q-39 33 -82 51q-45 16 -80 16h-260v-229h111q37 0 59 -15 q20 -14 33 -34q12 -23 16 -50q2 -27 2 -51v-311q0 -76 25 -121q23 -47 55 -72q31 -27 66 -36q35 -10 57 -13v-6q-23 -2 -57 -12q-35 -12 -66 -37q-33 -27 -55 -68q-25 -43 -25 -108v-328q0 -23 -2 -49q-4 -27 -16 -47q-12 -23 -33 -37q-23 -14 -59 -14h-111z" />
<glyph unicode="~" horiz-adv-x="1228" d="M137 520l82 -190q12 27 29 53q14 27 37 47q20 20 47 35q27 12 59 12q72 0 129 -20q57 -23 107 -51q51 -29 102 -48q49 -20 107 -20q47 0 86 16q37 14 67 39q31 25 55 58q25 31 48 63l-82 191l-37 -54q-18 -27 -39 -47q-23 -20 -47 -33q-27 -14 -58 -14q-41 0 -96 25 l-112 49q-59 27 -117 47q-57 18 -111 18q-51 0 -90 -14q-41 -16 -72 -41q-33 -25 -55 -55q-23 -33 -39 -66z" />
<glyph unicode="&#xa2;" horiz-adv-x="1138" d="M43 512q0 -109 35 -203q35 -96 100 -168q63 -74 154 -116q90 -45 200 -52v-206h121v206q94 8 176 41q80 33 142 90q61 55 100 136q37 78 45 176h-285q0 -39 -14 -76q-14 -39 -37 -70q-25 -31 -57 -51q-33 -23 -70 -29v678q70 -6 119 -57q49 -53 55 -127h285 q-4 92 -43 168q-41 74 -104 127q-66 51 -146 80q-82 29 -166 28v175h-121v-175q-119 -10 -208 -57q-92 -47 -154 -123q-63 -78 -94 -178q-33 -100 -33 -217zM334 541q0 53 10 106q10 51 35 96q23 43 61 76q37 33 92 47v-676q-57 18 -94 56q-39 35 -61 84q-23 47 -33 102 q-10 53 -10 109z" />
<glyph unicode="&#xa3;" horiz-adv-x="1138" d="M43 633h203q16 -35 28 -68q10 -35 11 -69q0 -55 -21 -105q-20 -51 -51 -94q-33 -43 -74 -78q-43 -37 -86 -63l127 -189q59 45 121 62q59 14 115 14q68 0 112 -12q45 -12 90 -29q43 -14 95 -25q51 -10 129 -10t162 29t157 100l-123 207q-55 -59 -96 -74q-43 -14 -84 -14 t-80 8q-39 6 -80 17l-80 16q-41 6 -81 6q-29 0 -60 -8t-80 -39l-4 4q68 53 119 123q49 68 49 164q0 35 -2 65q-4 31 -14 62h215v174h-273q-31 55 -47 94q-18 39 -24 70q-8 29 -10 51q-2 23 -3 47q0 86 56 137q53 51 145 51q78 0 123 -30q43 -33 66 -76q20 -43 26 -88 q6 -47 8 -78h277q0 250 -131 381t-367 131q-129 0 -227 -33t-164 -88q-66 -57 -98 -131q-35 -74 -35 -155q0 -92 31 -168t61 -115h-131v-174z" />
<glyph unicode="&#xa5;" horiz-adv-x="1138" d="M-16 1462l313 -637h-195v-194h293l29 -60v-94h-322v-194h322v-283h311v283h324v194h-324v94l31 60h293v194h-195l318 637h-332l-264 -637l-271 637h-331z" />
<glyph unicode="&#xa8;" horiz-adv-x="530" d="M-82 1223v239h275v-239h-275zM338 1223v239h276v-239h-276z" />
<glyph unicode="&#xa9;" horiz-adv-x="1638" d="M33 731q-1 -174 65 -315q63 -141 172 -242q109 -100 252 -154q141 -53 297 -53t299 53q141 53 250 154q109 100 174 242q63 141 64 315q0 176 -64 318q-66 141 -174 241q-109 98 -250 154q-143 53 -299 53t-297 -53q-143 -55 -252 -154q-109 -100 -172 -241 q-66 -141 -65 -318zM242 731q0 131 45 242t123 190q78 80 184 125q104 45 225 45q119 0 225 -45q104 -45 183 -125q78 -80 125 -190q45 -111 45 -242t-45 -242q-47 -111 -125 -190q-78 -80 -183 -125q-106 -45 -225 -45q-121 0 -225 45q-106 45 -184 125t-123 190 q-45 111 -45 242zM408 735q0 -96 32 -178q31 -84 88 -145t140 -97q80 -35 180 -34q68 0 131 22q61 20 113 64q49 41 84 102q33 59 45 135h-166q-10 -74 -66 -117q-55 -43 -141 -43q-55 0 -100 25q-45 23 -76 63q-33 39 -49 95q-18 53 -19 112q0 129 62 211q61 80 178 80 q80 0 137 -41t74 -112h159q-10 78 -43 137t-81 100q-49 39 -111 60q-63 20 -135 20q-102 0 -182 -35q-82 -35 -138 -96q-57 -61 -86 -145q-31 -84 -30 -183z" />
<glyph unicode="&#xab;" horiz-adv-x="909" d="M86 420l322 -256v246l-185 147l185 145v246l-322 -252v-276zM502 420l321 -256v246l-184 147l184 145v246l-321 -252v-276z" />
<glyph unicode="&#xad;" horiz-adv-x="833" d="M109 434h616v250h-616v-250z" />
<glyph unicode="&#xae;" horiz-adv-x="1638" d="M33 733q-1 -176 65 -317q63 -141 172 -242q109 -100 252 -154q141 -53 297 -53t299 53q141 53 250 154q109 100 174 242q63 141 64 317q0 174 -64 316q-66 141 -174 241q-109 98 -250 154q-143 53 -299 53t-297 -53q-143 -55 -252 -154q-109 -100 -172 -241 q-66 -141 -65 -316zM242 733q0 131 45 242q45 109 123 188q78 80 184 125q104 45 225 45q119 0 225 -45q104 -45 183 -125q78 -80 125 -188q45 -111 45 -242t-45 -241q-47 -111 -125 -191q-78 -82 -183 -127q-106 -45 -225 -45q-121 0 -225 45q-106 45 -184 127 q-78 80 -123 191t-45 241zM514 305h170v367h107l208 -367h179l-230 375q47 4 88 18t72 41t49 70q16 41 17 100q0 139 -87 197q-88 57 -249 57h-324v-858zM684 805v225h143q29 0 62 -4q31 -4 57 -14q25 -12 41 -33q16 -20 17 -55q0 -78 -48 -99q-47 -20 -120 -20h-152z" />
<glyph unicode="&#xb4;" horiz-adv-x="530" d="M111 1190l196 291h322l-316 -291h-202z" />
<glyph unicode="&#xb8;" horiz-adv-x="530" d="M25 -399l55 -19q25 -8 53 -14q27 -6 62 -8q35 -4 84 -4q45 0 88 10q43 8 77 33q33 23 54 63q20 39 20 98q0 37 -16 66q-16 27 -43 45q-27 16 -60 25q-35 8 -69 8q-45 0 -70 -10h-4l80 110h-100l-121 -172l43 -49q37 14 82 14q35 0 59 -12q23 -14 23 -53q0 -37 -23 -54 q-23 -16 -59 -16q-53 0 -97 12q-43 10 -75 25z" />
<glyph unicode="&#xbb;" horiz-adv-x="909" d="M86 164l322 256v276l-322 252v-246l184 -145l-184 -147v-246zM502 164l321 256v276l-321 252v-246l184 -145l-184 -147v-246z" />
<glyph unicode="&#xc4;" horiz-adv-x="1402" d="M-12 0h323l115 326h547l110 -326h334l-547 1462h-329zM352 1626h277v240h-277v-240zM510 565l190 537h5l184 -537h-379zM774 1626h277v240h-277v-240z" />
<glyph unicode="&#xd5;" horiz-adv-x="1593" d="M78 725q0 -160 49 -297q49 -139 141 -242q92 -102 228 -159q133 -59 301 -60q170 0 303 60q133 57 225 159t141 242q49 137 50 297q0 164 -50 305q-49 139 -141 244q-92 104 -225 164q-133 59 -303 59q-168 0 -301 -59q-135 -59 -228 -164q-92 -104 -141 -244 q-49 -141 -49 -305zM399 725q0 96 23 186q20 90 67 162q47 70 123 113q76 41 185 41t184 -41q76 -43 123 -113q47 -72 70 -162q20 -90 20 -186q0 -92 -20 -178q-23 -88 -70 -158t-123 -110q-76 -43 -184 -43q-109 0 -185 43q-76 41 -123 110q-47 70 -67 158q-23 86 -23 178z M422 1616h125q10 39 28 63q16 23 58 23q35 0 69 -10q35 -10 74 -25q39 -12 80 -22q41 -12 88 -13q61 0 103 25q39 23 65 57q25 35 39 76l23 76h-142q2 -29 -18 -49q-20 -23 -68 -23q-35 0 -67 12q-35 10 -68 25l-63 24q-33 10 -68 11q-68 0 -113 -23t-73 -57 q-29 -37 -45 -80q-16 -45 -27 -90z" />
<glyph unicode="&#xd6;" horiz-adv-x="1593" d="M78 725q0 -160 49 -297q49 -139 141 -242q92 -102 228 -159q133 -59 301 -60q170 0 303 60q133 57 225 159t141 242q49 137 50 297q0 164 -50 305q-49 139 -141 244q-92 104 -225 164q-133 59 -303 59q-168 0 -301 -59q-135 -59 -228 -164q-92 -104 -141 -244 q-49 -141 -49 -305zM399 725q0 96 23 186q20 90 67 162q47 70 123 113q76 41 185 41t184 -41q76 -43 123 -113q47 -72 70 -162q20 -90 20 -186q0 -92 -20 -178q-23 -88 -70 -158t-123 -110q-76 -43 -184 -43q-109 0 -185 43q-76 41 -123 110q-47 70 -67 158q-23 86 -23 178z M449 1626h276v240h-276v-240zM870 1626h277v240h-277v-240z" />
<glyph unicode="&#xdc;" horiz-adv-x="1517" d="M135 553q0 -299 164 -442q162 -143 459 -144q293 0 459 146q166 143 165 440v909h-321v-909q0 -164 -66 -240q-66 -78 -237 -77q-98 0 -156 28q-59 27 -92 72q-33 43 -43 100t-10 117v909h-322v-909zM410 1626h276v240h-276v-240zM831 1626h277v240h-277v-240z" />
<glyph unicode="&#xe4;" d="M66 289q0 -82 28 -142q27 -59 76 -98t115 -57t141 -19q98 0 192 29t164 100q2 -27 9 -51q4 -27 12 -51h295q-20 33 -29 98q-8 66 -8 138v550q0 96 -43 156q-43 57 -111 90t-149 45q-82 10 -162 10q-88 0 -174 -16q-88 -18 -158 -59t-114 -109q-45 -68 -52 -170h291 q8 86 57 123t136 37q39 0 73 -4q33 -6 60 -21q25 -16 41 -43q14 -29 14 -75q2 -45 -27 -68q-29 -25 -77 -37q-49 -12 -113 -18q-63 -6 -129 -17q-66 -10 -129 -26q-66 -18 -115 -54q-51 -35 -82 -92q-33 -59 -32 -149zM240 1223h276v239h-276v-239zM356 301q0 41 15 68 q14 27 39 45q23 16 55 26q31 10 63 17q35 6 70 10t68 10q31 6 59 17q27 8 45 24v-108q0 -25 -4 -66q-6 -41 -29 -80q-23 -41 -69 -69q-47 -29 -133 -29q-35 0 -68 6t-57 23q-25 14 -39 41t-15 65zM662 1223h276v239h-276v-239z" />
<glyph unicode="&#xf5;" horiz-adv-x="1251" d="M78 528q0 -127 39 -229t110 -174q72 -74 172 -113t226 -39q125 0 227 39q100 39 172 113q72 72 111 174t39 229t-39 232q-39 102 -111 176q-72 72 -172 113q-102 39 -227 38q-125 0 -226 -38q-100 -41 -172 -113q-72 -74 -110 -176q-39 -104 -39 -232zM250 1212h125 q10 39 28 64q16 23 58 22q35 0 69 -10q35 -10 74 -24q39 -12 80 -23q41 -12 88 -12q61 0 102 24q39 23 66 58q25 35 39 75l22 76h-141q2 -29 -18 -49q-20 -23 -68 -22q-35 0 -67 12q-35 10 -68 24l-64 25q-33 10 -67 10q-68 0 -113 -22q-45 -23 -73 -58q-29 -37 -46 -79 q-16 -45 -26 -91zM369 528q0 64 12 125t43 109q29 47 78 78q49 29 123 28q74 0 125 -28q49 -31 79 -78q29 -47 41 -109q12 -61 13 -125q0 -63 -13 -122q-12 -61 -41 -109q-31 -49 -79 -78q-51 -29 -125 -29t-123 29t-78 78q-31 47 -43 109q-12 59 -12 122z" />
<glyph unicode="&#xf6;" horiz-adv-x="1251" d="M78 528q0 -127 39 -229t110 -174q72 -74 172 -113t226 -39q125 0 227 39q100 39 172 113q72 72 111 174t39 229t-39 232q-39 102 -111 176q-72 72 -172 113q-102 39 -227 38q-125 0 -226 -38q-100 -41 -172 -113q-72 -74 -110 -176q-39 -104 -39 -232zM276 1223h277v239 h-277v-239zM369 528q0 64 12 125t43 109q29 47 78 78q49 29 123 28q74 0 125 -28q49 -31 79 -78q29 -47 41 -109q12 -61 13 -125q0 -63 -13 -122q-12 -61 -41 -109q-31 -49 -79 -78q-51 -29 -125 -29t-123 29t-78 78q-31 47 -43 109q-12 59 -12 122zM698 1223h277v239h-277 v-239z" />
<glyph unicode="&#xfc;" horiz-adv-x="1214" d="M111 408q0 -98 18 -179q16 -82 59 -137q43 -57 119 -88q74 -31 191 -31q92 0 180 41t143 133h6v-147h277v1059h-291v-555q0 -162 -53 -232q-53 -72 -172 -71q-104 0 -146 65q-41 63 -41 195v598h-290v-651zM258 1223h277v239h-277v-239zM680 1223h276v239h-276v-239z" />
<glyph unicode="&#x160;" horiz-adv-x="1329" d="M49 485q-2 -135 49 -233t140 -162q86 -63 200 -92q113 -31 234 -31q150 0 264 35q113 35 190 98q76 61 115 148q39 86 39 186q0 123 -51 203q-53 78 -125 125t-143 69q-74 20 -115 29l-221 58q-86 23 -133 45q-49 23 -66 49q-16 27 -16 69q0 47 20 78t53 51q31 20 70 29 q39 8 78 8q59 0 110 -10q49 -10 88 -35t64 -67q23 -43 27 -109h311q0 127 -47 217q-49 88 -131 146q-82 57 -187 84q-106 25 -221 24q-98 0 -196 -27t-177 -81q-78 -55 -125 -138q-49 -84 -49 -196q0 -100 39 -170q37 -72 99 -119q61 -47 139 -76q78 -31 160 -51 q80 -23 157 -41q78 -18 139 -43t101 -61q37 -37 37 -97q0 -55 -29 -90q-29 -37 -72 -57t-92 -27q-49 -8 -92 -8q-63 0 -123 16q-59 14 -102 48q-45 31 -72 81q-27 51 -27 125h-311zM305 1884l227 -291h267l225 291h-225l-133 -166l-131 166h-230z" />
<glyph unicode="&#x161;" horiz-adv-x="1099" d="M59 344q4 -106 50 -176q43 -72 112 -115q68 -43 156 -61t180 -19q90 0 178 19q86 16 154 59t110 115q41 70 41 174q0 74 -28 125q-29 49 -76 84q-47 33 -107 53q-61 20 -124 35l-121 27q-59 12 -105 28q-47 14 -76 39t-28 64q0 33 16 53q16 18 41 29q23 10 51 14 q29 2 54 2q78 0 135 -29q57 -31 63 -114h277q-8 98 -49 163q-43 63 -107 103q-63 39 -143 55q-82 16 -168 16t-168 -14q-82 -16 -148 -53q-66 -39 -104 -105q-41 -66 -41 -167q0 -70 29 -117q29 -49 75 -80q47 -33 109 -51q59 -20 123 -35q156 -33 244 -66q86 -33 86 -98 q0 -39 -19 -63q-18 -27 -45 -41q-29 -16 -61 -23q-35 -8 -66 -8q-43 0 -82 10q-41 10 -71 33q-31 20 -50 55q-20 33 -20 80h-277zM190 1481l228 -291h266l225 291h-225l-133 -166l-131 166h-230z" />
<glyph unicode="&#x17d;" horiz-adv-x="1327" d="M47 0h1233v270h-805l785 938v254h-1151v-270h722l-784 -938v-254zM305 1884l227 -291h267l225 291h-225l-133 -166l-131 166h-230z" />
<glyph unicode="&#x17e;" horiz-adv-x="1062" d="M45 0h973v219h-590l551 621v219h-893v-219h510l-551 -621v-219zM172 1481l227 -291h267l225 291h-225l-134 -166l-131 166h-229z" />
<glyph unicode="&#x2c6;" horiz-adv-x="530" d="M-92 1190h219l131 166l127 -166h240l-226 291h-266z" />
<glyph unicode="&#x2da;" horiz-adv-x="530" d="M14 1343q1 -51 21 -96q18 -47 53 -80q33 -35 80 -53q45 -20 96 -20q53 0 98 20q45 18 80 53q35 33 56 80q18 45 18 96q0 53 -18 99q-20 45 -56 80q-35 33 -80 53q-45 18 -98 18q-51 0 -96 -18q-47 -20 -80 -53q-35 -35 -53 -80q-20 -45 -21 -99zM135 1343q0 60 35 103 q35 41 94 41t96 -41q35 -43 35 -103q0 -59 -35 -100q-37 -43 -96 -43t-94 43q-35 41 -35 100z" />
<glyph unicode="&#x2dc;" horiz-adv-x="530" d="M-109 1212h123q10 39 29 64q16 23 57 22q35 0 70 -10t74 -24q39 -12 80 -23q41 -12 88 -12q61 0 102 24q39 23 66 58q25 35 38 75l23 76h-141q2 -29 -19 -49q-20 -23 -67 -22q-35 0 -68 12q-35 10 -67 24l-64 25q-33 10 -68 10q-68 0 -110 -22q-45 -23 -74 -58 q-29 -37 -45 -79q-16 -45 -27 -91z" />
<glyph unicode="&#x400;" horiz-adv-x="1327" d="M141 0v1462h1094v-270h-772v-313h708v-250h-708v-359h788v-270h-1110zM303 1884h320l196 -291h-203z" />
<glyph unicode="&#x401;" horiz-adv-x="1327" d="M141 0v1462h1094v-270h-772v-313h708v-250h-708v-359h788v-270h-1110zM356 1626v240h275v-240h-275zM776 1626v240h277v-240h-277z" />
<glyph unicode="&#x402;" horiz-adv-x="1646" d="M27 1192v270h1177v-270h-479v-404q53 72 147 117q94 43 197 43q106 0 199 -26q90 -27 155 -84q66 -57 105 -148q37 -92 37 -219q0 -137 -43 -231t-115 -152q-74 -59 -170 -84q-96 -27 -203 -27q-43 1 -94 7q-53 6 -86 16v242q8 -4 25 -6q16 -4 32 -7q16 -2 33 -2h23 q57 0 108 13q49 12 86 41q37 27 60 73q20 47 20 117q0 111 -65 170q-68 59 -185 59q-119 0 -192 -86q-74 -86 -74 -239v-375h-322v1192h-376z" />
<glyph unicode="&#x403;" d="M152 0v1462h1015v-270h-694v-1192h-321zM471 1593l197 291h321l-315 -291h-203z" />
<glyph unicode="&#x404;" horiz-adv-x="1507" d="M78 733q0 160 49 299t141 244q92 102 226 162q133 59 301 59q127 0 235 -37q109 -37 191 -102q82 -68 135 -158q51 -90 65 -196h-311q-31 106 -115 165t-207 60q-84 0 -147 -27t-109 -72q-47 -47 -75 -108q-31 -63 -45 -135h528v-252h-539q23 -186 119 -295t264 -109 q272 0 332 285h314q-18 -123 -68 -223q-49 -102 -129 -174q-82 -74 -195 -113t-256 -39q-159 1 -288 56q-131 55 -224 155q-92 100 -141 242q-51 141 -51 313z" />
<glyph unicode="&#x405;" horiz-adv-x="1329" d="M49 485h311q0 -74 27 -125t72 -81q43 -33 102 -48q57 -16 123 -16q43 0 92 8q49 6 92 27q43 20 72 57q29 35 29 90q0 59 -37 97q-39 37 -101 61q-61 25 -139 43t-157 41q-82 20 -160 49t-139 78q-61 47 -99 117q-39 70 -39 172q0 113 49 196q47 82 125 138q78 55 177 81 q98 27 196 27q115 0 221 -24q104 -27 187 -84q82 -57 131 -146q47 -90 47 -217h-311q-4 66 -27 109q-25 43 -64 67q-39 25 -90 35t-108 10q-39 0 -78 -8t-70 -29q-33 -20 -53 -51q-20 -33 -20 -78q0 -43 16 -69q16 -27 66 -49q47 -23 133 -45l221 -58q41 -8 115 -29 q72 -23 143 -69q72 -47 125 -125q51 -80 51 -203q0 -102 -39 -186q-39 -86 -115 -148q-78 -63 -190 -98q-115 -35 -264 -35q-121 0 -234 31q-115 29 -200 92q-88 63 -140 162q-51 98 -49 233z" />
<glyph unicode="&#x406;" horiz-adv-x="604" d="M141 0v1462h322v-1462h-322z" />
<glyph unicode="&#x407;" horiz-adv-x="604" d="M-47 1626v240h274v-240h-274zM141 0v1462h322v-1462h-322zM373 1626v240h276v-240h-276z" />
<glyph unicode="&#x408;" horiz-adv-x="1138" d="M29 418v127h290v-66q0 -53 9 -98q8 -45 28 -76q20 -33 58 -51q35 -18 92 -18q63 0 98 22q35 23 51 59q14 35 19 78q2 41 2 80v987h321v-1001q0 -72 -14 -158t-65 -160q-51 -76 -148 -125q-96 -51 -260 -51q-92 0 -178 27q-86 25 -154 80q-68 53 -108 139q-41 84 -41 205z " />
<glyph unicode="&#x409;" horiz-adv-x="2304" d="M-4 8v246q8 -4 27 -6q16 -2 34 -2l62 -4q14 0 39 4q23 4 47 20q25 14 47 45q20 31 33 84q14 61 22 156q8 92 15 223q4 129 6 301v387h1052v-528h344q111 0 205 -27q94 -29 164 -86t111 -145q39 -88 39 -207q0 -121 -39 -209t-109 -145q-72 -59 -170 -86q-98 -29 -217 -29 h-647v1192h-428q-2 -242 -6 -414q-6 -174 -21 -297q-14 -125 -41 -209q-27 -86 -73 -151q-53 -74 -123 -105q-70 -33 -162 -32q-22 0 -51 2t-60 6q-31 2 -57 6q-27 4 -43 10zM1380 262h303q117 0 183 47t65 164q0 57 -18 98q-18 39 -51 64q-35 25 -80 37q-47 10 -101 10 h-301v-420z" />
<glyph unicode="&#x40a;" horiz-adv-x="2299" d="M141 0v1462h322v-549h592v549h321v-549h344q111 0 205 -26q94 -29 164 -84q70 -57 111 -141q39 -86 38 -203q0 -117 -38 -203q-39 -86 -109 -143q-72 -57 -170 -84q-98 -29 -217 -29h-649v643h-592v-643h-322zM1376 262h303q117 0 183 45t65 156q0 55 -18 94 q-18 37 -51 61q-35 23 -80 33q-47 10 -101 11h-301v-400z" />
<glyph unicode="&#x40b;" horiz-adv-x="1646" d="M27 1192v270h1177v-270h-479v-315l66 14l81 12q41 6 84 10q41 4 74 5q123 0 215 -27t156 -86q61 -61 92 -158q31 -98 31 -239v-408h-320v412q0 133 -51 186q-53 53 -176 53q-33 0 -70 -4l-71 -8l-64 -12q-29 -6 -47 -9v-618h-322v1192h-376z" />
<glyph unicode="&#x40c;" horiz-adv-x="1478" d="M141 0v1462h322v-606l571 606h402l-572 -577l627 -885h-404l-440 657l-184 -186v-471h-322zM561 1593l197 291h321l-315 -291h-203z" />
<glyph unicode="&#x40d;" horiz-adv-x="1525" d="M141 0v1462h320v-1013h6l557 1013h360v-1462h-319v1016h-6l-557 -1016h-361zM381 1884h319l197 -291h-203z" />
<glyph unicode="&#x40e;" horiz-adv-x="1325" d="M-10 1462h354l336 -762l317 762h342l-491 -1077q-51 -111 -100 -188q-49 -80 -105 -129q-57 -49 -125 -72t-156 -23q-53 1 -100 11q-49 8 -78 16v260q59 -16 154 -16q74 0 111 39q37 37 36 86q0 47 -22 98zM342 1903h115q14 -72 73 -109t146 -37q86 0 145 37t74 109h115 q0 -160 -92 -238t-242 -78t-242 78t-92 238z" />
<glyph unicode="&#x40f;" horiz-adv-x="1499" d="M141 0v1462h322v-1192h573v1192h322v-1462h-455v-334h-309v334h-453z" />
<glyph unicode="&#x410;" horiz-adv-x="1402" d="M-12 0l553 1462h329l547 -1462h-334l-110 326h-547l-115 -326h-323zM510 565h379l-184 537h-5z" />
<glyph unicode="&#x411;" horiz-adv-x="1437" d="M141 0v1462h1086v-264h-764v-276h381q111 0 205 -27t163 -82q70 -57 111 -143q39 -88 39 -207q0 -121 -39 -207q-39 -88 -109 -145q-72 -57 -170 -84t-217 -27h-686zM463 262h340q117 0 182 45q66 43 66 160q0 57 -19 96q-18 39 -51 64q-35 23 -80 32q-47 10 -100 11 h-338v-408z" />
<glyph unicode="&#x412;" horiz-adv-x="1441" d="M141 0v1462h688q104 0 191 -18q86 -18 147 -60q61 -43 97 -112q33 -70 32 -172q0 -111 -49 -185q-51 -74 -149 -120q135 -39 202 -136q66 -98 66 -235q0 -111 -43 -191q-43 -82 -115 -133q-74 -51 -166 -75q-94 -25 -192 -25h-709zM463 250h344q47 0 90 10q43 8 76 31 q33 20 53 57q18 37 18 94q0 113 -63 162q-63 47 -168 47h-350v-401zM463 870h325q86 0 142 41q55 41 55 133q0 51 -18 84t-49 52q-31 18 -70 26q-41 6 -84 6h-301v-342z" />
<glyph unicode="&#x413;" d="M152 0v1462h1015v-270h-694v-1192h-321z" />
<glyph unicode="&#x414;" horiz-adv-x="1581" d="M16 270h123q63 86 105 187q39 100 61 219q20 119 29 258q6 139 6 301v227h1061v-1192h160v-604h-310v334h-925v-334h-310v604zM485 270h594v928h-432v-27q0 -150 -6 -276q-8 -127 -25 -236q-18 -111 -49 -204q-33 -96 -82 -185z" />
<glyph unicode="&#x415;" horiz-adv-x="1327" d="M141 0v1462h1094v-270h-772v-313h708v-250h-708v-359h788v-270h-1110z" />
<glyph unicode="&#x416;" horiz-adv-x="2172" d="M-12 0l583 866l-530 596h379l512 -602v602h309v-602l512 602h379l-530 -596l583 -866h-397l-389 639l-158 -178v-461h-309v461l-158 178l-391 -639h-395z" />
<glyph unicode="&#x417;" horiz-adv-x="1325" d="M43 492h317q2 -74 29 -127q25 -53 68 -86q41 -35 98 -50q55 -16 121 -16q113 0 182 70q70 68 70 168q0 61 -23 102q-23 39 -61 63q-39 23 -88 31t-103 8h-110v217q18 -2 45 -2h41q264 0 264 199q0 86 -59 133q-61 47 -160 47q-119 0 -189 -57q-72 -57 -82 -164h-303 q2 123 50 211q47 88 126 145q78 57 183 86q102 27 217 27q111 0 207 -29q94 -31 164 -84q68 -53 108 -127q39 -76 39 -167q0 -111 -61 -191t-160 -102q57 -10 108 -39t88 -72q37 -45 60 -104q20 -59 20 -129q0 -106 -43 -195q-45 -90 -121 -154q-78 -66 -182 -100 q-104 -37 -227 -37q-301 0 -465 139q-164 137 -168 386z" />
<glyph unicode="&#x418;" horiz-adv-x="1525" d="M141 0v1462h320v-1013h6l557 1013h360v-1462h-319v1016h-6l-557 -1016h-361z" />
<glyph unicode="&#x419;" horiz-adv-x="1525" d="M141 0v1462h320v-1013h6l557 1013h360v-1462h-319v1016h-6l-557 -1016h-361zM449 1903h114q14 -72 74 -109q59 -37 145 -37t146 37q59 37 73 109h115q0 -160 -92 -238t-242 -78q-149 0 -241 78t-92 238z" />
<glyph unicode="&#x41a;" horiz-adv-x="1478" d="M141 0v1462h322v-606l571 606h402l-572 -577l627 -885h-404l-440 657l-184 -186v-471h-322z" />
<glyph unicode="&#x41b;" horiz-adv-x="1521" d="M-4 8v246q8 -4 27 -6q16 -2 34 -2l62 -4q14 0 39 4q23 4 47 20q25 14 47 45q20 31 33 84q14 61 22 156q8 92 15 223q4 129 6 301v387h1052v-1462h-319v1192h-428q-2 -242 -6 -414q-6 -174 -21 -297q-14 -125 -41 -209q-27 -86 -73 -151q-53 -74 -123 -105 q-70 -33 -162 -32q-22 0 -51 2t-60 6q-31 2 -57 6q-27 4 -43 10z" />
<glyph unicode="&#x41c;" horiz-adv-x="1857" d="M141 0v1462h453l342 -1005h4l324 1005h452v-1462h-301v1036h-4l-358 -1036h-248l-359 1026h-4v-1026h-301z" />
<glyph unicode="&#x41d;" horiz-adv-x="1517" d="M141 0v1462h322v-561h592v561h321v-1462h-321v631h-592v-631h-322z" />
<glyph unicode="&#x41e;" horiz-adv-x="1593" d="M78 725q0 162 49 303t141 246q92 104 226 164q133 59 303 59q168 0 303 -59q133 -59 225 -164q92 -104 141 -246q49 -141 50 -303q0 -160 -50 -297q-49 -139 -141 -242q-92 -102 -225 -159q-135 -59 -303 -60q-170 1 -303 60q-133 57 -226 159q-92 102 -141 242 q-49 137 -49 297zM399 725q0 -92 23 -178q20 -88 67 -158t123 -110q76 -43 185 -43q108 0 184 43q76 41 123 110q47 70 70 158q20 86 20 178q0 96 -20 186q-23 90 -70 162q-47 70 -123 113q-76 41 -184 41q-109 0 -185 -41q-76 -43 -123 -113q-47 -72 -67 -162 q-23 -90 -23 -186z" />
<glyph unicode="&#x41f;" horiz-adv-x="1499" d="M141 0v1462h1217v-1462h-322v1192h-573v-1192h-322z" />
<glyph unicode="&#x420;" horiz-adv-x="1366" d="M141 0v1462h660q137 0 233 -39q96 -41 158 -106q59 -66 88 -150q27 -86 27 -174q0 -90 -27 -174q-29 -84 -88 -149q-61 -66 -158 -105q-96 -41 -233 -41h-338v-524h-322zM463 774h250q55 0 106 8t90 33q39 23 64 66q23 43 22 112q0 70 -22 113q-25 43 -64 68 q-39 23 -90 30q-51 8 -106 8h-250v-438z" />
<glyph unicode="&#x421;" horiz-adv-x="1517" d="M78 725q0 162 49 303t141 246q92 104 226 164q133 59 303 59q119 0 227 -35q109 -35 195 -100q84 -68 139 -166t69 -225h-311q-8 55 -37 102q-29 45 -71 80q-43 35 -97 55q-55 18 -114 19q-109 0 -185 -41q-76 -43 -123 -113q-47 -72 -67 -162q-23 -90 -23 -186 q0 -92 23 -178q20 -88 67 -158t123 -110q76 -43 185 -43q147 0 231 90q82 90 100 237h312q-12 -139 -64 -248q-51 -111 -135 -188q-84 -78 -197 -119t-247 -41q-170 1 -303 60q-133 57 -226 159q-92 102 -141 242q-49 137 -49 297z" />
<glyph unicode="&#x422;" horiz-adv-x="1251" d="M27 1192v270h1198v-270h-439v-1192h-321v1192h-438z" />
<glyph unicode="&#x423;" horiz-adv-x="1325" d="M-10 1462h354l336 -762l317 762h342l-491 -1077q-51 -111 -100 -188q-49 -80 -105 -129q-57 -49 -125 -72t-156 -23q-53 1 -100 11q-49 8 -78 16v260q59 -16 154 -16q74 0 111 39q37 37 36 86q0 47 -22 98z" />
<glyph unicode="&#x424;" horiz-adv-x="1767" d="M72 745q0 131 45 242t131 191q84 80 205 127q121 45 272 49v143h317v-143q152 -4 273 -49q121 -47 207 -127q84 -80 129 -191t45 -242q0 -137 -45 -247q-47 -113 -133 -193t-207 -125q-121 -47 -269 -53v-160h-317v160q-147 6 -268 53q-121 45 -207 125t-131 193 q-47 111 -47 247zM381 745q0 -72 25 -139q25 -68 71 -119q45 -53 109 -86q61 -33 139 -34v755q-80 -4 -143 -32q-63 -31 -109 -80q-45 -51 -67 -119q-25 -68 -25 -146zM1042 367q76 2 142 34q63 33 108 86q45 51 72 119q25 68 25 139q0 78 -25 146t-68 119q-45 49 -108 80 q-66 29 -146 32v-755z" />
<glyph unicode="&#x425;" horiz-adv-x="1366" d="M-10 0l510 766l-471 696h372l287 -467l297 467h352l-469 -698l510 -764h-383l-319 506l-326 -506h-360z" />
<glyph unicode="&#x426;" horiz-adv-x="1540" d="M141 0v1462h322v-1192h573v1192h322v-1192h162v-604h-310v334h-1069z" />
<glyph unicode="&#x427;" horiz-adv-x="1392" d="M92 1024v438h320v-442q0 -133 53 -186q51 -53 174 -54q33 0 76 4t84 11q41 4 75 10q35 4 54 8v649h321v-1462h-321v555q-27 -6 -66 -12q-41 -8 -84 -15q-45 -6 -88 -10t-76 -4q-123 0 -219 27q-98 27 -164 88q-68 59 -102 157q-37 96 -37 238z" />
<glyph unicode="&#x428;" horiz-adv-x="2213" d="M141 0v1462h322v-1192h483v1192h322v-1192h483v1192h322v-1462h-1932z" />
<glyph unicode="&#x429;" horiz-adv-x="2254" d="M141 0v1462h322v-1192h483v1192h322v-1192h483v1192h322v-1192h161v-604h-309v334h-1784z" />
<glyph unicode="&#x42a;" horiz-adv-x="1667" d="M27 1192v270h716v-528h344q111 0 205 -27q94 -29 164 -86t111 -145q39 -88 39 -207q0 -121 -39 -209t-109 -145q-72 -59 -170 -86q-98 -29 -217 -29h-649v1192h-395zM743 262h304q117 0 182 47q66 47 65 164q0 57 -18 98q-18 39 -51 64q-35 25 -80 37q-47 10 -101 10 h-301v-420z" />
<glyph unicode="&#x42b;" horiz-adv-x="1902" d="M141 0v1462h322v-528h303q111 0 205 -27q94 -29 164 -86t110 -145q39 -88 39 -207q0 -121 -39 -209t-108 -145q-72 -59 -170 -86q-98 -29 -217 -29h-609zM463 262h262q117 0 182 47q66 47 66 164q0 57 -19 98q-18 39 -51 64q-35 25 -80 37q-47 10 -100 10h-260v-420z M1440 0v1462h321v-1462h-321z" />
<glyph unicode="&#x42c;" horiz-adv-x="1386" d="M141 0v1462h322v-528h344q111 0 205 -27q94 -29 164 -86t110 -145q39 -88 39 -207q0 -121 -39 -209t-108 -145q-72 -59 -170 -86q-98 -29 -217 -29h-650zM463 262h303q117 0 182 47q66 47 66 164q0 57 -19 98q-18 39 -51 64q-35 25 -80 37q-47 10 -100 10h-301v-420z" />
<glyph unicode="&#x42d;" horiz-adv-x="1511" d="M78 516h309q59 -283 340 -283q164 0 264 109q98 106 121 293h-541v252h531q-14 70 -41 133q-29 61 -74 108q-47 47 -113 76q-66 27 -151 27q-123 0 -209 -60q-88 -61 -119 -167h-305q14 106 68 196q51 90 133 158q82 66 190 102q109 37 236 37q168 0 301 -59t225 -162 q92 -104 141 -244q49 -139 50 -299q0 -172 -50 -313q-51 -141 -143 -242q-92 -100 -221 -155q-131 -55 -291 -56q-143 0 -256 39t-194 113q-82 72 -132 174q-51 100 -69 223z" />
<glyph unicode="&#x42e;" horiz-adv-x="2095" d="M141 0v1462h322v-561h244q23 137 77 248q55 109 140 186q84 78 194 121q109 41 242 41q147 0 268 -55t207 -156q86 -102 135 -244q47 -141 47 -313q0 -170 -47 -309q-49 -141 -135 -242q-86 -100 -207 -155q-123 -55 -270 -56q-139 0 -254 49q-117 47 -203 136 q-86 88 -137 213q-53 123 -66 276h-235v-641h-322zM1018 735q0 -236 92 -366q90 -131 250 -133q156 0 246 133q88 131 88 366q0 233 -88 363q-90 129 -250 129q-78 0 -139 -33q-63 -35 -107 -98q-45 -66 -68 -156q-25 -92 -24 -205z" />
<glyph unicode="&#x42f;" horiz-adv-x="1484" d="M6 0l443 578q-145 37 -234 149q-90 111 -90 289q0 117 41 201t110 139q68 55 160 82q90 25 191 24h716v-1462h-319v551h-227l-389 -551h-402zM438 1014q0 -68 25 -111q23 -43 61 -67q39 -27 90 -35q51 -10 107 -10h303v419h-317q-51 0 -99 -6q-49 -8 -86 -28 q-39 -23 -61 -60q-23 -39 -23 -102z" />
<glyph unicode="&#x430;" d="M66 289q0 90 32 149q31 57 82 92q49 35 115 54q63 16 129 26t129 17q63 6 113 18q49 12 77 37q29 23 27 68q0 45 -14 73q-16 29 -41 45q-27 14 -60 21q-35 4 -73 4q-86 0 -136 -37q-49 -37 -57 -123h-291q6 100 52 170q45 68 114 109q70 41 156 59q86 16 176 16 q80 0 162 -10q82 -12 149 -45q68 -33 111 -92t43 -154v-550q0 -72 8 -138t29 -98h-295q-8 25 -12 51q-6 25 -9 51q-70 -72 -164 -100q-94 -29 -192 -29q-75 1 -141 19t-115 57t-76 98q-29 59 -28 142zM356 301q0 -41 15 -65q14 -27 39 -41q25 -16 57 -23q33 -6 68 -6 q86 0 133 29t69 69q23 39 29 80q4 41 4 66v108q-18 -16 -45 -24q-27 -10 -59 -17q-33 -6 -68 -10t-70 -10t-65 -17q-31 -10 -53 -26q-25 -18 -39 -45t-15 -68z" />
<glyph unicode="&#x431;" horiz-adv-x="1243" d="M98 618q0 139 13 269q12 127 57 231t131 182q84 76 229 115q45 12 107 17q59 4 115 10q55 6 94 18q37 10 39 37h256q-8 -98 -41 -156q-35 -57 -99 -90q-63 -35 -155 -49q-92 -16 -217 -28q-98 -10 -166 -48q-68 -37 -111 -92q-43 -57 -63 -127q-23 -72 -31 -149h6 q18 53 53 106q33 53 84 97q51 43 121 71q70 27 160 27q100 0 190 -39q88 -39 154 -111t104 -170q37 -100 37 -223q0 -125 -37 -225q-39 -100 -110 -170q-72 -72 -174 -109q-102 -39 -230 -39q-154 1 -254 58t-157 149q-59 92 -82 207t-23 231zM393 516q0 -160 66 -242 q63 -84 176 -84q110 0 176 84q63 84 63 244q0 156 -63 244q-63 86 -180 86q-111 0 -174 -88t-64 -244z" />
<glyph unicode="&#x432;" horiz-adv-x="1189" d="M119 0v1059h608q70 0 131 -15q61 -16 109 -47q45 -33 71 -84q27 -51 27 -120q0 -78 -39 -134q-39 -57 -104 -86q82 -23 137 -84q55 -63 55 -174q0 -78 -27 -135q-29 -59 -77 -98q-49 -41 -115 -62q-66 -20 -139 -20h-637zM406 188h215q37 0 71 7q35 4 62 18t43 43 q16 27 16 72t-16 73q-18 29 -47 43t-66 21q-37 4 -76 4h-202v-281zM406 633h192q33 0 64 4t55 18q25 12 39 37q14 23 14 64q0 39 -14 63q-14 23 -37 35q-25 12 -55 16q-33 4 -66 4h-192v-241z" />
<glyph unicode="&#x433;" horiz-adv-x="927" d="M121 0v1059h799v-219h-508v-840h-291z" />
<glyph unicode="&#x434;" horiz-adv-x="1277" d="M14 219h127q23 45 47 113q23 68 43 151q18 84 31 183q12 98 12 206v187h846v-840h137v-510h-272v291h-698v-291h-273v510zM426 219h403v623h-284v-27q0 -98 -10 -188q-12 -90 -31 -166q-18 -78 -39 -139q-20 -61 -39 -103z" />
<glyph unicode="&#x435;" d="M59 528q0 119 39 222q39 102 111 178q72 74 172 116q98 43 219 43q127 0 225 -47q96 -47 162 -125q63 -80 96 -184t33 -217v-27q0 -14 -2 -28h-764q6 -141 72 -205q66 -63 188 -64q88 0 152 46q63 43 78 92h256q-61 -190 -189 -273q-127 -82 -307 -82q-125 0 -225 41 q-100 39 -170 113t-107 176q-39 102 -39 225zM350 643h473q-20 111 -71 168q-53 57 -160 57q-72 0 -117 -22q-45 -25 -72 -60q-29 -35 -38 -73q-12 -39 -15 -70z" />
<glyph unicode="&#x436;" horiz-adv-x="1662" d="M-10 0l405 651l-364 408h321l342 -422v422h275v-422l342 422h321l-370 -414l411 -645h-336l-260 440l-108 -123v-317h-275v317l-108 123l-260 -440h-336z" />
<glyph unicode="&#x437;" horiz-adv-x="1110" d="M45 344h277q8 -86 67 -131q57 -45 158 -45q98 0 143 41t45 100q0 66 -41 107q-43 41 -141 41h-113v182h76q92 0 148 29q53 29 53 108q0 47 -39 84q-41 35 -127 35q-88 0 -137 -29q-51 -31 -64 -116h-270q8 92 51 157q41 63 107 105q63 39 147 57q82 18 172 18 q211 0 328 -67q115 -70 114 -217q0 -47 -16 -86q-18 -41 -45 -72t-61 -49q-35 -20 -68 -27v-4q37 -4 78 -16q39 -14 71 -43q33 -31 56 -76q20 -47 20 -117q0 -86 -35 -149q-37 -63 -100 -107q-66 -43 -156 -63q-92 -20 -202 -21q-101 1 -189 21q-90 18 -157 63 q-68 45 -107 115q-41 70 -43 172z" />
<glyph unicode="&#x438;" horiz-adv-x="1228" d="M111 0v1059h278v-717l399 717h330v-1059h-278v717l-400 -717h-329z" />
<glyph unicode="&#x439;" horiz-adv-x="1228" d="M111 0v1059h278v-717l399 717h330v-1059h-278v717l-400 -717h-329zM287 1481h114q14 -72 70 -103q55 -33 141 -32q86 0 142 32q55 31 69 103h115q0 -80 -25 -135t-67 -91q-43 -37 -103 -53q-61 -16 -131 -16q-72 0 -131 16t-102 53q-43 35 -68 91q-25 55 -24 135z" />
<glyph unicode="&#x43a;" d="M111 0v1059h290v-451l390 451h342l-404 -422l461 -637h-352l-297 440l-140 -147v-293h-290z" />
<glyph unicode="&#x43b;" horiz-adv-x="1226" d="M6 4v223q16 -4 43 -6q27 -4 49 -4q68 0 101 64q6 12 14 41t16 108q6 80 13 229q4 147 4 400h870v-1059h-291v840h-299q0 -158 -4 -277q-4 -121 -14 -207q-10 -88 -27 -147q-16 -61 -41 -98q-35 -57 -98 -93q-63 -35 -168 -34q-16 0 -39 2q-25 2 -49 6q-25 2 -45 6 q-23 2 -35 6z" />
<glyph unicode="&#x43c;" horiz-adv-x="1511" d="M111 0v1059h421l220 -770h8l219 770h422v-1059h-275v805h-6l-227 -805h-275l-227 805h-6v-805h-274z" />
<glyph unicode="&#x43d;" horiz-adv-x="1214" d="M111 0v1059h290v-385h412v385h291v-1059h-291v444h-412v-444h-290z" />
<glyph unicode="&#x43e;" horiz-adv-x="1251" d="M78 528q0 127 39 232q39 102 110 176q72 72 172 113q100 39 226 38q125 0 227 -38q100 -41 172 -113q72 -74 111 -176q39 -104 39 -232q0 -127 -39 -229t-111 -174q-72 -74 -172 -113q-102 -39 -227 -39q-126 0 -226 39t-172 113q-72 72 -110 174q-39 102 -39 229z M369 528q0 -63 12 -122q12 -61 43 -109q29 -49 78 -78t123 -29t125 29q49 29 79 78q29 47 41 109q12 59 13 122q0 63 -13 125q-12 61 -41 109q-31 47 -79 78q-51 29 -125 28q-74 0 -123 -28q-49 -31 -78 -78q-31 -47 -43 -109q-12 -61 -12 -125z" />
<glyph unicode="&#x43f;" horiz-adv-x="1193" d="M111 0v1059h972v-1059h-290v840h-392v-840h-290z" />
<glyph unicode="&#x440;" horiz-adv-x="1251" d="M111 -371v1430h276v-135h4q53 86 135 125t181 38q125 0 215 -47t149 -125t88 -180q29 -104 29 -217q0 -106 -29 -205q-29 -98 -86 -174q-59 -76 -145 -121q-88 -45 -205 -45q-98 0 -180 41q-84 39 -137 117h-5v-502h-290zM391 526q0 -66 15 -125q12 -61 43 -106 q29 -47 77 -76q47 -29 119 -29t121 29q47 29 78 76q29 45 41 106q12 59 12 125q0 63 -12 125q-14 61 -45 111q-31 47 -78 78q-49 29 -119 28q-72 0 -119 -28q-49 -31 -78 -78q-31 -47 -43 -109q-12 -63 -12 -127z" />
<glyph unicode="&#x441;" d="M78 514q0 123 37 229q35 104 104 183q70 76 170 118q100 43 229 43q94 0 183 -24q86 -25 155 -74q68 -51 111 -127t49 -176h-285q-29 182 -215 182q-70 0 -116 -30q-47 -33 -76 -82q-31 -51 -43 -113q-12 -61 -12 -119q0 -57 12 -116t41 -107q27 -49 74 -80t114 -31 q104 0 162 60q55 57 70 156h280q-29 -211 -164 -322t-346 -111q-121 0 -219 41q-98 39 -168 111t-108 172q-39 98 -39 217z" />
<glyph unicode="&#x442;" horiz-adv-x="1028" d="M20 840v219h988v-219h-349v-840h-290v840h-349z" />
<glyph unicode="&#x443;" horiz-adv-x="1062" d="M-10 1059h309l240 -725h4l231 725h301l-442 -1190q-47 -129 -131 -184t-234 -56q-45 0 -88 4q-45 2 -90 7v239q35 -4 74 -6q37 -4 74 -4q66 0 100 37q35 37 35 94q0 35 -13 66z" />
<glyph unicode="&#x444;" horiz-adv-x="1753" d="M78 545q0 125 31 225q29 100 81 172q53 70 132 109q76 37 170 36q92 0 151 -32q59 -33 82 -76h6v483h291v-483h6q23 43 82 76t152 32q94 0 172 -36q76 -39 129 -109q53 -72 84 -172q29 -100 28 -225q0 -111 -22 -213q-23 -104 -72 -182q-51 -80 -133 -127 q-82 -49 -201 -50q-66 0 -127 31q-61 29 -92 68h-6v-443h-291v443h-6q-31 -39 -92 -68q-61 -31 -127 -31q-119 0 -201 50q-82 47 -131 127q-51 78 -74 182q-23 102 -22 213zM369 539q0 -66 10 -127q8 -63 33 -113q23 -49 61 -78q39 -31 100 -31q66 0 109 31q41 31 49 72v463 q-20 63 -69 88t-97 24q-104 0 -149 -88q-47 -88 -47 -241zM1022 293q8 -41 51 -72q41 -31 107 -31q61 0 100 31q39 29 63 78q23 49 33 113q8 61 8 127q0 154 -45 241q-47 88 -151 88q-47 0 -96 -24q-49 -25 -70 -88v-463z" />
<glyph unicode="&#x445;" horiz-adv-x="1099" d="M0 0l381 557l-348 502h332l186 -277l184 277h322l-348 -496l391 -563h-332l-221 334l-221 -334h-326z" />
<glyph unicode="&#x446;" horiz-adv-x="1234" d="M111 0v1059h290v-840h392v840h290v-840h131v-510h-272v291h-831z" />
<glyph unicode="&#x447;" d="M82 731v328h289v-268q0 -115 32 -160q33 -47 129 -47q27 0 62 4q35 2 70 6q33 4 63 10l47 10v445h291v-1059h-291v406q-20 -6 -57 -13l-82 -16q-47 -8 -98 -12q-51 -6 -101 -7q-178 0 -266 101q-88 100 -88 272z" />
<glyph unicode="&#x448;" horiz-adv-x="1718" d="M111 0v1059h288v-840h316v840h289v-840h315v840h289v-1059h-1497z" />
<glyph unicode="&#x449;" horiz-adv-x="1748" d="M111 0v1059h288v-840h310v840h288v-840h310v840h288v-840h134v-510h-273v291h-1345z" />
<glyph unicode="&#x44a;" horiz-adv-x="1323" d="M20 840v219h582v-365h281q80 0 151 -20q70 -23 123 -66q51 -45 82 -108q31 -66 31 -152q0 -88 -29 -153q-31 -66 -84 -109q-55 -43 -127 -63q-74 -23 -160 -23h-559v840h-291zM602 201h199q80 0 129 35q47 35 47 112q0 78 -51 115q-51 35 -127 35h-197v-297z" />
<glyph unicode="&#x44b;" horiz-adv-x="1593" d="M111 0v1059h290v-365h281q80 0 152 -20q70 -23 122 -66q51 -45 82 -108q31 -66 31 -152q0 -88 -29 -153q-31 -66 -84 -109q-55 -43 -127 -63q-74 -23 -159 -23h-559zM401 201h199q80 0 129 35q47 35 47 112q0 78 -51 115q-51 35 -127 35h-197v-297zM1194 0v1059h289 v-1059h-289z" />
<glyph unicode="&#x44c;" horiz-adv-x="1122" d="M111 0v1059h290v-365h281q80 0 152 -20q70 -23 122 -66q51 -45 82 -108q31 -66 31 -152q0 -88 -29 -153q-31 -66 -84 -109q-55 -43 -127 -63q-74 -23 -159 -23h-559zM401 201h199q80 0 129 35q47 35 47 112q0 78 -51 115q-51 35 -127 35h-197v-297z" />
<glyph unicode="&#x44d;" horiz-adv-x="1179" d="M66 365h276q23 -86 80 -134q55 -49 141 -49q113 0 174 74q59 74 74 199h-350v184h344q-20 111 -84 174q-66 63 -164 64q-78 0 -135 -41t-78 -123h-278q27 174 157 274q131 100 336 100q123 0 223 -40q100 -41 172 -115q70 -74 109 -178t39 -234q0 -123 -37 -223 q-39 -102 -109 -174q-72 -72 -170 -111q-100 -39 -223 -39q-201 1 -334 99q-135 98 -163 293z" />
<glyph unicode="&#x44e;" horiz-adv-x="1710" d="M111 0v1059h290v-404h211q33 199 164 316t346 116q119 0 213 -38q94 -41 160 -115t102 -176q35 -104 35 -230q0 -127 -35 -229q-37 -102 -102 -174q-66 -74 -162 -113t-215 -39q-227 0 -358 127q-133 127 -154 351h-205v-451h-290zM893 528q0 -166 57 -252t168 -86 q111 1 168 89q55 86 55 251q0 160 -57 250q-59 88 -170 88q-106 0 -164 -90q-57 -90 -57 -250z" />
<glyph unicode="&#x44f;" horiz-adv-x="1183" d="M0 0l336 397q-113 18 -182 109q-72 90 -72 221q0 70 27 131q25 59 71 105q47 45 111 71q63 25 141 25h641v-1059h-291v373h-137l-289 -373h-356zM377 717q0 -61 37 -99q35 -37 137 -36h231v266h-231q-100 0 -137 -35q-37 -37 -37 -96z" />
<glyph unicode="&#x450;" d="M59 528q0 119 39 222q39 102 111 178q72 74 172 116q98 43 219 43q127 0 225 -47q96 -47 162 -125q63 -80 96 -184t33 -217v-27q0 -14 -2 -28h-764q6 -141 72 -205q66 -63 188 -64q88 0 152 46q63 43 78 92h256q-61 -190 -189 -273q-127 -82 -307 -82q-125 0 -225 41 q-100 39 -170 113t-107 176q-39 102 -39 225zM227 1481h320l196 -291h-202zM350 643h473q-20 111 -71 168q-53 57 -160 57q-72 0 -117 -22q-45 -25 -72 -60q-29 -35 -38 -73q-12 -39 -15 -70z" />
<glyph unicode="&#x451;" d="M59 528q0 119 39 222q39 102 111 178q72 74 172 116q98 43 219 43q127 0 225 -47q96 -47 162 -125q63 -80 96 -184t33 -217v-27q0 -14 -2 -28h-764q6 -141 72 -205q66 -63 188 -64q88 0 152 46q63 43 78 92h256q-61 -190 -189 -273q-127 -82 -307 -82q-125 0 -225 41 q-100 39 -170 113t-107 176q-39 102 -39 225zM250 1223v239h274v-239h-274zM350 643h473q-20 111 -71 168q-53 57 -160 57q-72 0 -117 -22q-45 -25 -72 -60q-29 -35 -38 -73q-12 -39 -15 -70zM670 1223v239h276v-239h-276z" />
<glyph unicode="&#x452;" horiz-adv-x="1255" d="M-16 1096v196h168v170h290v-170h426v-196h-426v-271h7q55 92 141 136q86 41 168 40q117 0 192 -30q74 -33 117 -88q43 -57 61 -138q16 -82 17 -180v-450q0 -229 -115 -357q-115 -129 -366 -129q-56 0 -117 6v234q16 -2 41 -2q25 -2 45 -2q53 0 96 12q41 10 70 41 q27 31 41 84q14 51 14 131v379q0 131 -41 197q-41 63 -145 63q-119 0 -172 -70q-53 -72 -54 -233v-469h-290v1096h-168z" />
<glyph unicode="&#x453;" horiz-adv-x="927" d="M121 0v1059h799v-219h-508v-840h-291zM317 1190l197 291h322l-316 -291h-203z" />
<glyph unicode="&#x454;" horiz-adv-x="1179" d="M78 520q0 129 39 234q39 104 110 178q70 74 170 115t224 40q205 0 335 -100q131 -100 158 -274h-278q-20 82 -78 123q-57 41 -135 41q-98 0 -162 -64q-66 -63 -86 -174h344v-184h-350q14 -125 75 -199q59 -74 172 -74q86 0 144 49q55 47 78 134h276q-29 -195 -162 -293 q-135 -98 -336 -99q-123 0 -221 39q-100 39 -170 111q-72 72 -108 174q-39 100 -39 223z" />
<glyph unicode="&#x455;" horiz-adv-x="1099" d="M59 344h277q0 -47 20 -80q18 -35 50 -55q31 -23 71 -33q39 -10 82 -10q31 0 66 8q33 6 61 23q27 14 45 41q18 25 19 63q0 66 -86 98q-88 33 -244 66q-63 14 -123 35q-61 18 -109 51q-47 31 -75 78q-29 47 -29 119q0 100 41 167q39 66 104 105q66 37 148 53q82 14 168 14 t168 -16q80 -16 143 -55t107 -103q41 -66 49 -163h-277q-6 84 -63 114q-57 29 -135 29q-25 0 -54 -2q-29 -4 -51 -14q-25 -10 -41 -29q-16 -20 -16 -53q0 -39 28 -64q29 -25 76 -39q45 -16 105 -28l121 -27q63 -14 124 -35q59 -20 107 -53q47 -35 76 -84q29 -51 28 -125 q0 -104 -41 -174q-43 -72 -110 -115q-68 -43 -154 -59q-88 -18 -178 -19q-92 1 -180 19t-156 61q-70 43 -112 115q-45 70 -50 176z" />
<glyph unicode="&#x456;" horiz-adv-x="528" d="M119 0v1059h291v-1059h-291zM119 1223v239h291v-239h-291z" />
<glyph unicode="&#x457;" horiz-adv-x="528" d="M-84 1223v239h274v-239h-274zM119 0v1059h291v-1059h-291zM336 1223v239h276v-239h-276z" />
<glyph unicode="&#x458;" horiz-adv-x="569" d="M-37 -123q18 -8 62 -8q45 0 79 18q33 16 33 76v1096h291v-1110q0 -82 -16 -142q-18 -59 -60 -98q-43 -41 -114 -59q-72 -20 -183 -21q-57 1 -92 9v239zM137 1223v239h291v-239h-291z" />
<glyph unicode="&#x459;" horiz-adv-x="1837" d="M6 4v223q16 -4 43 -6q27 -4 49 -4q68 0 101 64q6 12 14 41t16 108q6 80 13 229q4 147 4 400h870v-365h281q80 0 151 -20q70 -23 123 -66q51 -45 82 -108q31 -66 31 -152q0 -88 -29 -153q-31 -66 -84 -109q-55 -43 -127 -63q-74 -23 -160 -23h-559v840h-299 q0 -158 -4 -277q-4 -121 -14 -207q-10 -88 -27 -147q-16 -61 -41 -98q-35 -57 -98 -93q-63 -35 -168 -34q-16 0 -39 2q-25 2 -49 6q-25 2 -45 6q-23 2 -35 6zM1116 201h199q80 0 129 35q47 35 47 112q0 78 -51 115q-51 35 -127 35h-197v-297z" />
<glyph unicode="&#x45a;" horiz-adv-x="1824" d="M111 0v1059h290v-385h412v385h291v-385h280q80 0 152 -21q70 -20 123 -61q51 -41 82 -105q31 -63 31 -149q0 -88 -29 -152q-31 -63 -84 -104q-55 -43 -127 -62q-74 -20 -160 -20h-559v444h-412v-444h-290zM1104 201h199q80 0 129 30q47 29 47 107t-52 108q-51 31 -127 31 h-196v-276z" />
<glyph unicode="&#x45b;" horiz-adv-x="1255" d="M-16 1096v196h168v170h290v-170h426v-196h-426v-271h7q55 92 141 136q86 41 168 40q117 0 192 -30q74 -33 117 -88q43 -57 61 -138q16 -82 17 -180v-565h-291v512q0 131 -41 197q-41 63 -145 63q-119 0 -172 -70q-53 -72 -54 -233v-469h-290v1096h-168z" />
<glyph unicode="&#x45c;" d="M111 0v1059h290v-451l390 451h342l-404 -422l461 -637h-352l-297 440l-140 -147v-293h-290zM430 1190l197 291h321l-315 -291h-203z" />
<glyph unicode="&#x45d;" horiz-adv-x="1228" d="M111 0v1059h278v-717l399 717h330v-1059h-278v717l-400 -717h-329zM274 1481h320l197 -291h-203z" />
<glyph unicode="&#x45e;" horiz-adv-x="1062" d="M-10 1059h309l240 -725h4l231 725h301l-442 -1190q-47 -129 -131 -184t-234 -56q-45 0 -88 4q-45 2 -90 7v239q35 -4 74 -6q37 -4 74 -4q66 0 100 37q35 37 35 94q0 35 -13 66zM217 1481h115q14 -72 69 -103q55 -33 142 -32q86 0 141 32q55 31 70 103h114q0 -80 -24 -135 q-25 -55 -68 -91q-43 -37 -102 -53q-61 -16 -131 -16q-72 0 -131 16t-103 53q-43 35 -67 91q-25 55 -25 135z" />
<glyph unicode="&#x45f;" horiz-adv-x="1193" d="M111 0v1059h290v-840h392v840h290v-1059h-348v-291h-274v291h-350z" />
<glyph unicode="&#x462;" horiz-adv-x="1544" d="M0 1077v215h299v170h322v-170h432v-215h-432v-186h344q111 0 204 -27q94 -27 164 -82t111 -139q39 -84 39 -197q0 -119 -39 -202q-39 -86 -109 -140q-72 -53 -170 -77q-98 -27 -217 -27h-649v1077h-299zM621 262h303q131 0 190 45q57 43 57 144q0 98 -63 143t-186 45 h-301v-377z" />
<glyph unicode="&#x463;" horiz-adv-x="1204" d="M-20 864v195h213v403h290v-403h338v-195h-338v-170h281q80 0 151 -20q70 -23 123 -66q51 -45 82 -108q31 -66 31 -152q0 -88 -29 -153q-31 -66 -84 -109q-55 -43 -127 -63q-74 -23 -159 -23h-559v864h-213zM483 201h199q80 0 129 35q47 35 47 112q0 78 -51 115 q-51 35 -127 35h-197v-297z" />
<glyph unicode="&#x464;" horiz-adv-x="2082" d="M162 0v1489h289v-584h229q31 184 131 334q182 272 522 272q129 0 260 -53q104 -45 168 -102q127 -119 217 -402h-297q-117 299 -340 299q-174 0 -274 -133v2q-33 -45 -55 -98q-23 -55 -35 -119h502v-256h-514q6 -76 28 -143q20 -70 56 -129q104 -164 292 -164 q137 0 228 92q76 86 121 256h299q-72 -303 -228 -448q-31 -29 -73 -56q-43 -27 -95 -49q-127 -51 -260 -51q-340 0 -522 272q-125 182 -141 420h-219v-649h-289z" />
<glyph unicode="&#x465;" horiz-adv-x="1505" d="M90 0v1102h268v-420h158q25 135 102 250q139 199 394 198q106 0 192 -30q86 -33 150 -90q55 -55 88 -144q31 -88 35 -207h-267q-8 131 -51 183v-4q-49 49 -145 49q-88 0 -152 -88v2q-18 -29 -31 -58q-14 -29 -22 -61h371v-240h-377q14 -82 47 -143v4q55 -98 164 -98 q162 0 207 246h256q-10 -283 -170 -400q-129 -94 -322 -94q-127 0 -225 57t-162 160q-43 80 -68 174q-12 45 -18 94h-154v-442h-268z" />
<glyph unicode="&#x466;" horiz-adv-x="1478" d="M51 0l527 1475h348l522 -1475h-334l-94 403h-143v-403h-254v403h-148l-100 -403h-324zM559 657h375l-184 480z" />
<glyph unicode="&#x467;" horiz-adv-x="1138" d="M27 0l393 1090h301l389 -1090h-319l-68 272h-41v-272h-256v272h-25l-69 -272h-305zM475 526h174l-86 279z" />
<glyph unicode="&#x468;" horiz-adv-x="2058" d="M162 0v1489h289v-832h397l309 818h348l523 -1475h-334l-97 403h-143v-403h-254v403h-145l-103 -403h-321l127 403h-307v-403h-289zM1139 657h372l-184 480z" />
<glyph unicode="&#x469;" horiz-adv-x="1601" d="M90 0v1102h268v-576h322l203 564h301l391 -1090h-322l-67 272h-41v-272h-254v272h-27l-69 -272h-306l99 272h-230v-272h-268zM938 526h174l-86 279z" />
<glyph unicode="&#x46a;" horiz-adv-x="2041" d="M123 0v346q0 141 31 240q31 96 94 157q61 59 153 86t215 27h144l-389 606h1308l-387 -606h133q123 0 215 -27t156 -86q61 -61 92 -157q31 -98 31 -240v-346h-320v371q0 133 -51 186q-53 53 -176 53h-190v-610h-322v610h-190q-123 0 -174 -53q-53 -53 -54 -186v-371h-319z M850 1233l180 -320l184 320h-364z" />
<glyph unicode="&#x46b;" horiz-adv-x="1683" d="M94 0v225q0 172 88 273q88 100 267 100h145l-305 461h1065l-310 -461h191q178 0 266 -100t88 -273v-225h-289v207q0 115 -32 162q-33 45 -129 45h-170v-414h-291v414h-133q-96 0 -129 -45q-33 -47 -33 -162v-207h-289zM705 874l122 -215l121 215h-243z" />
<glyph unicode="&#x46c;" horiz-adv-x="2185" d="M61 0v1489h289v-711h803l-440 697h1284l-451 -707q51 -8 137 -29q68 -18 138 -51q72 -31 129 -76q68 -57 100 -141q35 -84 35 -246v-225h-287v203q0 137 -33 196t-110 90q-39 14 -88 25q-49 14 -70 14v-528h-287v528q-23 0 -71 -14q-49 -10 -86 -25q-82 -31 -115 -90 q-29 -59 -29 -196v-203h-286v225q0 162 30 246q12 31 29 57h-332v-528h-289zM1206 1212l154 -227l153 227h-307z" />
<glyph unicode="&#x46d;" horiz-adv-x="1701" d="M51 0v1102h268v-535h629l-332 514h953l-334 -514l100 -18q51 -14 103 -39q53 -23 96 -55q49 -43 74 -107q25 -61 24 -180v-168h-221v150q0 102 -25 147q-14 43 -71 55l-55 19q-37 10 -52 10v-381h-231v381h-6q-16 -2 -47 -10q-37 -8 -56 -19q-59 -23 -73 -55 q-23 -45 -23 -147v-150h-221v168q0 119 22 180q6 16 17 33h-271v-381h-268zM983 889l113 -160l114 160h-227z" />
<glyph unicode="&#x470;" horiz-adv-x="1708" d="M123 834v612h287v-590q0 -137 32 -197q33 -59 111 -90q39 -14 88 -24q49 -14 70 -15v916h286v-916q23 0 72 15q49 10 86 24q82 31 115 90q29 59 28 197v590h287v-612q0 -162 -31 -246q-33 -84 -104 -142q-55 -45 -125 -75q-33 -16 -68 -29q-35 -12 -69 -23 q-143 -35 -191 -32v-287h-286v287q-43 -2 -187 32q-68 18 -137 52q-72 31 -129 75q-68 57 -100 142q-35 84 -35 246z" />
<glyph unicode="&#x471;" horiz-adv-x="1478" d="M111 424v641h274v-608q0 -90 18 -146q16 -53 48 -80q63 -43 157 -38v1130h262v-1130q49 0 91 8q39 6 69 30q31 27 47 80q16 55 17 146v608h274v-641q0 -197 -115 -318q-117 -125 -383 -126v-381h-262v381q-264 2 -381 126q-119 121 -116 318z" />
<glyph unicode="&#x472;" horiz-adv-x="1593" d="M78 725q0 162 49 303t141 246q92 104 226 164q133 59 303 59q168 0 303 -59q133 -59 225 -164q92 -104 141 -246q49 -141 50 -303q0 -160 -50 -297q-49 -139 -141 -242q-92 -102 -225 -159q-135 -59 -303 -60q-170 1 -303 60q-133 57 -226 159q-92 102 -141 242 q-49 137 -49 297zM393 799q43 49 96 94q51 43 107 43q49 0 106 -27q55 -29 111 -59q53 -33 100 -59q47 -29 78 -29q62 -1 115 26q51 27 86 66q-12 78 -41 147q-29 70 -76 123q-49 51 -117 82q-70 29 -161 29q-100 0 -172 -35q-74 -37 -121 -96q-49 -59 -76 -139t-35 -166z M399 610q12 -78 41 -145q27 -70 76 -123q47 -53 117 -84t164 -31q102 0 176 37t123 98q47 61 73 142q25 80 31 166l-47 -54q-27 -27 -53 -47q-27 -23 -53 -34q-29 -14 -58 -15q-45 0 -98 29q-55 27 -109 59l-104 60q-51 27 -90 26q-63 0 -109 -22q-47 -25 -80 -62z" />
<glyph unicode="&#x473;" horiz-adv-x="1251" d="M78 528q0 127 39 232q39 102 110 176q72 72 172 113q100 39 226 38q125 0 227 -38q100 -41 172 -113q72 -74 111 -176q39 -104 39 -232q0 -127 -39 -229t-111 -174q-72 -74 -172 -113q-102 -39 -227 -39q-126 0 -226 39t-172 113q-72 72 -110 174q-39 102 -39 229z M362 588q29 39 66 71q37 31 82 31q39 0 72 -18t61 -39q27 -23 53 -39q25 -18 49 -19q47 1 80 17q33 14 58 41q-8 49 -27 94q-18 45 -49 78t-76 53q-45 18 -106 19q-68 0 -115 -23q-47 -25 -78 -63q-31 -41 -47 -93q-16 -53 -23 -110zM369 418q8 -49 28 -90q18 -43 49 -76 t76 -51q43 -18 103 -19q67 0 114 25q47 23 78 61q31 39 47 90t23 107q-29 -35 -66 -62t-78 -26q-37 0 -65 18q-31 16 -60 39q-29 20 -57 39q-29 18 -59 19q-49 0 -80 -23t-53 -51z" />
<glyph unicode="&#x474;" horiz-adv-x="1372" d="M-14 1462h329l326 -1028h4l246 817q35 119 129 181q92 59 213 59q43 0 100 -6q57 -8 90 -19v-245q-16 6 -51 10l-51 2l-33 -2q-20 -2 -41 -10q-23 -10 -41 -29q-20 -20 -30 -53l-355 -1139h-362z" />
<glyph unicode="&#x475;" horiz-adv-x="1105" d="M10 1059h305l224 -723h4l139 526q12 47 33 88q20 39 53 70q31 29 78 45q45 16 110 16h41l95 -10q20 -4 32 -8v-223q-16 4 -43 6t-49 2q-35 0 -61 -23q-27 -25 -37 -59l-238 -766h-323z" />
<glyph unicode="&#x476;" horiz-adv-x="1515" d="M47 1475h330l319 -1121l314 1000l51 61q63 76 262 76h61l68 -4v-230l-35 3q-43 2 -80 -3q-39 -6 -63 -22q-27 -18 -47 -72q-6 -14 -391 -1163h-291zM213 1935h291l149 -290h-196zM651 1935h291l150 -290h-197z" />
<glyph unicode="&#x477;" horiz-adv-x="1251" d="M27 1090h319l227 -803l209 665l54 64q63 74 251 74h62q23 0 70 -5v-227l-37 2q-41 2 -78 -2q-39 -6 -66 -24q-25 -16 -47 -70l-272 -764h-301zM113 1536h290l150 -293h-197zM553 1536h291l147 -293h-194z" />
<glyph unicode="&#x478;" horiz-adv-x="2732" d="M100 739q0 406 226 609q166 172 483 172q315 0 481 -172q223 -203 223 -609q0 -397 -223 -608q-166 -172 -481 -172q-317 0 -483 172q-225 211 -226 608zM408 739q0 -250 108 -385q109 -135 293 -135q182 0 291 135q106 135 106 385q0 248 -106 383q-109 135 -291 135 q-184 0 -293 -135t-108 -383zM1614 1090h317l238 -803l225 803h303l-375 -1072q-106 -311 -170 -385q-63 -74 -251 -73h-62q-23 0 -70 4v227l37 -2q41 -2 80 4q37 4 64 23q25 16 47 71q20 53 16 66z" />
<glyph unicode="&#x479;" horiz-adv-x="2390" d="M66 543q0 236 139 409q137 172 418 172t419 -172q137 -174 138 -409q0 -240 -138 -410q-139 -172 -419 -172q-281 0 -418 172q-139 170 -139 410zM362 543q0 -164 68 -252q68 -90 193 -90t192 90q66 88 66 252t-66 254q-68 88 -192 88q-125 0 -193 -88q-68 -90 -68 -254z M1272 1090h317l238 -803l225 803h303l-375 -1072q-106 -311 -170 -385q-63 -74 -251 -73h-62q-23 0 -70 4v227l37 -2q41 -2 80 4q37 4 64 23q25 16 47 71q20 53 16 66z" />
<glyph unicode="&#x48c;" horiz-adv-x="1544" d="M0 1247v215h299v217h322v-217h309v-215h-309v-356h344q111 0 204 -27q94 -27 164 -82t111 -139q39 -84 39 -197q0 -119 -39 -202q-39 -86 -109 -140q-72 -53 -170 -77q-98 -27 -217 -27h-649v1247h-299zM621 262h303q131 0 190 45q57 43 57 144q0 98 -63 143t-186 45 h-301v-377z" />
<glyph unicode="&#x48d;" horiz-adv-x="1204" d="M-20 864v195h213v221h290v-221h242v-195h-242v-170h281q80 0 151 -20q70 -23 123 -66q51 -45 82 -108q31 -66 31 -152q0 -88 -29 -153q-31 -66 -84 -109q-55 -43 -127 -63q-74 -23 -159 -23h-559v864h-213zM483 201h199q80 0 129 35q47 35 47 112q0 78 -51 115 q-51 35 -127 35h-197v-297z" />
<glyph unicode="&#x490;" d="M141 0v1462h709v322h309v-592h-696v-1192h-322z" />
<glyph unicode="&#x491;" horiz-adv-x="927" d="M121 0v1059h534v289h265v-508h-508v-840h-291z" />
<glyph unicode="&#x492;" horiz-adv-x="1284" d="M49 629v250h211v583h1016v-270h-694v-313h383v-250h-383v-629h-322v629h-211z" />
<glyph unicode="&#x493;" horiz-adv-x="1013" d="M37 436v187h170v436h799v-219h-508v-217h297v-187h-297v-436h-291v436h-170z" />
<glyph unicode="&#x496;" horiz-adv-x="2215" d="M-12 0l583 866l-530 596h379l512 -602v602h309v-602l512 602h379l-530 -596l401 -596h203v-604h-310v334h-108l-389 639l-158 -178v-461h-309v461l-158 178l-391 -639h-395z" />
<glyph unicode="&#x497;" horiz-adv-x="1703" d="M-10 0l405 651l-364 408h321l342 -422v422h275v-422l342 422h321l-370 -414l272 -426h164v-510h-273v291h-88l-260 440l-108 -123v-317h-275v317l-108 123l-260 -440h-336z" />
<glyph unicode="&#x498;" horiz-adv-x="1325" d="M43 492h317q2 -74 29 -127q25 -53 68 -86q41 -35 98 -50q55 -16 121 -16q113 0 182 70q70 68 70 168q0 61 -23 102q-23 39 -61 63q-39 23 -88 31t-103 8h-110v217q18 -2 45 -2h41q264 0 264 199q0 86 -59 133q-61 47 -160 47q-119 0 -189 -57q-72 -57 -82 -164h-303 q2 123 50 211q47 88 126 145q78 57 183 86q102 27 217 27q111 0 207 -29q94 -31 164 -84q68 -53 108 -127q39 -76 39 -167q0 -111 -61 -191t-160 -102q57 -10 108 -39t88 -72q37 -45 60 -104q20 -59 20 -129q0 -104 -41 -191q-43 -88 -116 -151q-74 -66 -174 -103 q-102 -37 -220 -41l-53 -73h4q25 10 70 10q35 0 69 -8q33 -8 60 -25q27 -18 43 -45q16 -29 16 -66q0 -59 -20 -98q-20 -41 -53 -63q-35 -25 -78 -33q-43 -10 -88 -10q-49 0 -84 4q-35 2 -62 8q-29 6 -53 14l-55 19l43 98q33 -14 75 -25q43 -12 97 -12q37 0 59 16 q23 16 23 54q0 39 -23 53q-25 12 -59 12q-45 0 -82 -14l-43 49l96 137q-266 18 -410 154q-143 135 -147 369z" />
<glyph unicode="&#x499;" horiz-adv-x="1110" d="M45 344h277q8 -86 67 -131q57 -45 158 -45q98 0 143 41t45 100q0 66 -41 107q-43 41 -141 41h-113v182h76q92 0 148 29q53 29 53 108q0 47 -39 84q-41 35 -127 35q-88 0 -137 -29q-51 -31 -64 -116h-270q8 92 51 157q41 63 107 105q63 39 147 57q82 18 172 18 q211 0 328 -67q115 -70 114 -217q0 -47 -16 -86q-18 -41 -45 -72t-61 -49q-35 -20 -68 -27v-4q37 -4 78 -16q39 -14 71 -43q33 -31 56 -76q20 -47 20 -117q0 -80 -30 -141q-33 -61 -91 -102q-57 -43 -139 -66t-180 -29l-57 -81h4q25 10 69 10q35 0 70 -8q33 -8 59 -25 q27 -18 43 -45q16 -29 17 -66q0 -59 -21 -98q-20 -41 -53 -63q-35 -25 -78 -33q-43 -10 -88 -10q-49 0 -84 4q-35 2 -61 8q-29 6 -54 14l-55 19l43 98q33 -14 76 -25q43 -12 96 -12q37 0 60 16t22 54q0 39 -22 53q-25 12 -60 12q-45 0 -82 -14l-43 49l101 143q-92 4 -172 27 q-82 20 -144 66q-61 45 -96 112q-37 68 -39 164z" />
<glyph unicode="&#x49a;" horiz-adv-x="1521" d="M141 0v1462h322v-606l571 606h402l-572 -577l436 -615h211v-604h-309v334h-115l-440 657l-184 -186v-471h-322z" />
<glyph unicode="&#x49b;" horiz-adv-x="1200" d="M111 0v1059h290v-451l390 451h342l-404 -422l305 -418h160v-510h-272v291h-84l-297 440l-140 -147v-293h-290z" />
<glyph unicode="&#x49c;" horiz-adv-x="1540" d="M141 0v1462h322v-561h96v273h164v-273h25l409 561h361l-519 -680l553 -782h-403l-416 631h-10v-277h-164v277h-96v-631h-322z" />
<glyph unicode="&#x49d;" horiz-adv-x="1259" d="M111 0v1059h290v-397h78v188h133v-188h11l297 397h319l-385 -479l418 -580h-352l-297 440h-11v-194h-133v194h-78v-440h-290z" />
<glyph unicode="&#x4a0;" horiz-adv-x="1759" d="M27 1192v270h716v-606l572 606h401l-571 -577l627 -885h-404l-440 657l-185 -186v-471h-321v1192h-395z" />
<glyph unicode="&#x4a1;" horiz-adv-x="1376" d="M20 840v219h582v-451l389 451h342l-403 -422l461 -637h-353l-297 440l-139 -147v-293h-291v840h-291z" />
<glyph unicode="&#x4a2;" horiz-adv-x="1558" d="M141 0v1462h322v-561h592v561h321v-1192h162v-604h-309v334h-174v631h-592v-631h-322z" />
<glyph unicode="&#x4a3;" horiz-adv-x="1249" d="M111 0v1059h290v-385h412v385h291v-840h131v-510h-272v291h-150v444h-412v-444h-290z" />
<glyph unicode="&#x4a4;" horiz-adv-x="2078" d="M141 0v1462h322v-561h592v561h1016v-270h-695v-1192h-321v631h-592v-631h-322z" />
<glyph unicode="&#x4a5;" horiz-adv-x="1619" d="M111 0v1059h290v-385h412v385h799v-219h-508v-840h-291v444h-412v-444h-290z" />
<glyph unicode="&#x4aa;" horiz-adv-x="1517" d="M78 725q0 162 49 303t141 246q92 104 226 164q133 59 303 59q119 0 227 -35q109 -35 195 -100q84 -68 139 -166t69 -225h-311q-8 55 -37 102q-29 45 -71 80q-43 35 -97 55q-55 18 -114 19q-109 0 -185 -41q-76 -43 -123 -113q-47 -72 -67 -162q-23 -90 -23 -186 q0 -92 23 -178q20 -88 67 -158t123 -110q76 -43 185 -43q147 0 231 90q82 90 100 237h312q-12 -135 -62 -244q-49 -109 -129 -184q-82 -78 -190 -121q-109 -43 -238 -47l-53 -73h4q25 10 70 10q35 0 69 -8q33 -8 60 -25q27 -18 43 -45q16 -29 16 -66q0 -59 -20 -98 q-20 -41 -54 -63q-35 -25 -77 -33q-43 -10 -88 -10q-49 0 -84 4q-35 2 -62 8q-29 6 -53 14l-55 19l43 98q33 -14 75 -25q43 -12 97 -12q37 0 59 16q23 16 23 54q0 39 -23 53q-25 12 -59 12q-45 0 -82 -14l-43 49l96 139q-152 12 -270 76q-121 61 -203 162q-84 100 -127 233 q-45 131 -45 283z" />
<glyph unicode="&#x4ab;" d="M78 514q0 123 37 229q35 104 104 183q70 76 170 118q100 43 229 43q94 0 183 -24q86 -25 155 -74q68 -51 111 -127t49 -176h-285q-29 182 -215 182q-70 0 -116 -30q-47 -33 -76 -82q-31 -51 -43 -113q-12 -61 -12 -119q0 -57 12 -116t41 -107q27 -49 74 -80t114 -31 q104 0 162 60q55 57 70 156h280q-29 -199 -147 -308q-121 -111 -313 -123l-58 -81h4q25 10 70 10q35 0 70 -8q33 -8 59 -25q27 -18 43 -45q16 -29 16 -66q0 -59 -20 -98q-20 -41 -53 -63q-35 -25 -78 -33q-43 -10 -88 -10q-49 0 -84 4q-35 2 -62 8q-29 6 -53 14l-55 19 l43 98q33 -14 76 -25q43 -12 96 -12q37 0 59 16q23 16 23 54q0 39 -23 53q-25 12 -59 12q-45 0 -82 -14l-43 49l100 143q-111 8 -198 52q-90 43 -154 114q-63 70 -98 166q-35 94 -35 207z" />
<glyph unicode="&#x4ac;" horiz-adv-x="1271" d="M35 1233v256h1208v-256h-459v-977h113v-575h-289v319h-112v1233h-461z" />
<glyph unicode="&#x4ad;" horiz-adv-x="1042" d="M41 864v238h987v-238h-358v-635h84v-483h-269v254h-86v864h-358z" />
<glyph unicode="&#x4ae;" horiz-adv-x="1366" d="M-16 1462h360l342 -577l340 577h358l-542 -901v-561h-322v569z" />
<glyph unicode="&#x4af;" horiz-adv-x="1062" d="M-10 1059h309l240 -705h4l231 705h301l-399 -1039v-391h-291v406z" />
<glyph unicode="&#x4b0;" horiz-adv-x="1366" d="M-16 1462h360l342 -577l340 577h358l-542 -901v-72h315v-215h-315v-274h-322v274h-315v215h315v80z" />
<glyph unicode="&#x4b1;" horiz-adv-x="1062" d="M-10 1059h309l240 -705h4l231 705h301l-399 -1039v-36h250v-195h-250v-160h-291v160h-250v195h250v51z" />
<glyph unicode="&#x4b2;" horiz-adv-x="1409" d="M-10 0l510 766l-471 696h372l287 -467l297 467h352l-469 -698l330 -494h201v-604h-309v334h-95l-319 506l-326 -506h-360z" />
<glyph unicode="&#x4b3;" horiz-adv-x="1132" d="M0 0l381 557l-348 502h332l186 -277l184 277h322l-348 -496l239 -344h178v-510h-272v291h-86l-221 334l-221 -334h-326z" />
<glyph unicode="&#x4b4;" horiz-adv-x="1882" d="M53 1233v256h1110v-256h-358v-977h612v1233h287v-1233h113v-575h-289v319h-1012v1233h-463z" />
<glyph unicode="&#x4b5;" horiz-adv-x="1347" d="M27 864v238h729v-238h-201v-635h373v873h270v-873h84v-483h-268v246h-727v872h-260z" />
<glyph unicode="&#x4b6;" horiz-adv-x="1431" d="M92 1024v438h320v-442q0 -133 53 -186q51 -53 174 -54q33 0 76 4t84 11q41 4 75 10q35 4 54 8v649h321v-1192h162v-604h-309v334h-174v555q-27 -6 -66 -12q-41 -8 -84 -15q-45 -6 -88 -10t-76 -4q-123 0 -219 27q-98 27 -164 88q-68 59 -102 157q-37 96 -37 238z" />
<glyph unicode="&#x4b7;" horiz-adv-x="1210" d="M82 731v328h289v-268q0 -115 32 -160q33 -47 129 -47q27 0 62 4q35 2 70 6q33 4 63 10l47 10v445h291v-840h131v-510h-272v291h-150v406q-20 -6 -57 -13l-82 -16q-47 -8 -98 -12q-51 -6 -101 -7q-178 0 -266 101q-88 100 -88 272z" />
<glyph unicode="&#x4b8;" horiz-adv-x="1392" d="M92 1024v438h320v-442q0 -117 39 -172t131 -66v289h163v-285q55 4 109 13q51 8 74 14v649h321v-1462h-321v555q-33 -8 -80 -16q-49 -10 -103 -17v-270h-163v262q-117 2 -207 33q-90 29 -154 90q-63 59 -96 156q-33 94 -33 231z" />
<glyph unicode="&#x4b9;" d="M82 731v328h289v-268q0 -104 26 -152q25 -47 103 -53v202h133v-198q41 4 80 12q39 6 61 12v445h291v-1059h-291v406l-57 -15q-37 -8 -84 -16v-211h-133v196q-16 -2 -31 -2h-33q-178 0 -266 101q-88 100 -88 272z" />
<glyph unicode="&#x4ba;" horiz-adv-x="1382" d="M141 0v1462h322v-555l67 15l84 12q43 6 86 10t76 4q123 0 221 -26q96 -27 164 -86q66 -61 103 -158q35 -98 34 -240v-438h-319v442q0 133 -51 187q-53 53 -176 53q-33 0 -76 -4l-160 -19l-53 -10v-649h-322z" />
<glyph unicode="&#x4bb;" horiz-adv-x="1214" d="M111 0v1462h290v-551h7q55 92 141 136q86 41 168 40q117 0 192 -30q74 -33 117 -88q43 -57 61 -138q16 -82 17 -180v-651h-291v598q0 131 -41 197q-41 63 -145 63q-119 0 -172 -70q-53 -72 -54 -233v-555h-290z" />
<glyph unicode="&#x4bc;" horiz-adv-x="1894" d="M37 924l4 102h227l-4 -51q0 -43 12 -88q10 -47 89 -51h86q12 94 41 178q49 141 139 250q94 104 221 161t276 58q154 0 302 -72q145 -76 223 -192q37 -53 61 -119q23 -66 37 -137q10 -49 16 -140q4 -92 5 -219h-1031q18 -152 109 -266q49 -66 117 -98q66 -33 145 -33 q76 0 152 41q74 39 145 112q27 29 47 74q20 43 37 101h268q-16 -141 -71 -244q-27 -49 -58 -88t-63 -74q-115 -111 -279 -147q-88 -23 -196 -23q-274 0 -461 201q-162 166 -187 444h-86q-166 0 -243 66q-80 63 -80 254zM750 836h731q-8 47 -21 100l-30 113 q-133 186 -316 186q-63 0 -125 -39q-61 -39 -119 -109v3q-47 -63 -77 -154q-31 -92 -43 -100z" />
<glyph unicode="&#x4bd;" horiz-adv-x="1527" d="M37 784l4 105h227l-4 -53q0 -43 12 -111q10 -68 89 -72h90q25 199 135 316q143 150 373 149q137 0 245 -49q109 -51 181 -162q63 -96 81 -225q12 -76 11 -215h-748q6 -166 105 -231q57 -41 141 -41q88 0 143 51q29 27 54 73h290q-12 -96 -100 -196q-141 -160 -393 -160 q-207 0 -367 135q-141 117 -157 369h-89q-166 -2 -243 63q-80 66 -80 254zM741 653h443q-6 115 -68 174q-61 57 -153 58q-98 0 -152 -62q-55 -63 -70 -170z" />
<glyph unicode="&#x4be;" horiz-adv-x="1894" d="M37 924l4 102h227l-4 -51q0 -43 12 -88q10 -47 89 -51h86q12 94 41 178q49 141 139 250q94 104 221 161t276 58q154 0 302 -72q145 -76 223 -192q37 -53 61 -119q23 -66 37 -137q10 -49 16 -140q4 -92 5 -219h-1031q18 -152 109 -266q49 -66 117 -98q66 -33 145 -33 q76 0 152 41q74 39 145 112q27 29 47 74q20 43 37 101h268q-16 -141 -71 -244q-27 -49 -58 -88t-63 -74q-115 -111 -279 -147q-45 -10 -94 -17l-18 -12q-68 -51 -101 -86q-35 -37 -35 -80q0 -47 35 -74q33 -27 80 -26q23 0 47 6q25 6 56 16v-143q-45 -16 -76 -25 q-53 -12 -121 -12q-106 0 -172 59q-68 57 -68 140q0 90 84 168q33 31 99 69q-217 29 -373 195q-162 166 -187 444h-86q-166 0 -243 66q-80 63 -80 254zM750 836h731q-8 47 -21 100l-30 113q-133 186 -316 186q-63 0 -125 -39q-61 -39 -119 -109v3q-47 -63 -77 -154 q-31 -92 -43 -100z" />
<glyph unicode="&#x4bf;" horiz-adv-x="1527" d="M37 784l4 105h227l-4 -53q0 -43 12 -111q10 -68 89 -72h90q25 199 135 316q143 150 373 149q137 0 245 -49q109 -51 181 -162q63 -96 81 -225q12 -76 11 -215h-748q6 -166 105 -231q57 -41 141 -41q88 0 143 51q29 27 54 73h290q-12 -96 -100 -196q-109 -121 -279 -150 l-28 -20q-70 -51 -103 -86q-33 -37 -32 -80q0 -47 32 -74q33 -27 82 -26q23 0 47 6l54 16v-143q-45 -16 -74 -25q-55 -12 -123 -12q-104 0 -172 59q-68 57 -68 140q0 90 84 168q37 33 105 73q-158 23 -285 129q-141 117 -157 369h-89q-166 -2 -243 63q-80 66 -80 254z M741 653h443q-6 115 -68 174q-61 57 -153 58q-98 0 -152 -62q-55 -63 -70 -170z" />
<glyph unicode="&#x4c0;" horiz-adv-x="604" d="M141 0v1462h322v-1462h-322z" />
<glyph unicode="&#x4c1;" horiz-adv-x="2172" d="M-12 0l583 866l-530 596h379l512 -602v602h309v-602l512 602h379l-530 -596l583 -866h-397l-389 639l-158 -178v-461h-309v461l-158 178l-391 -639h-395zM750 1903h114q14 -72 74 -109q59 -37 145 -37t146 37q59 37 74 109h114q0 -160 -92 -238t-242 -78q-149 0 -241 78 t-92 238z" />
<glyph unicode="&#x4c2;" horiz-adv-x="1662" d="M-10 0l405 651l-364 408h321l342 -422v422h275v-422l342 422h321l-370 -414l411 -645h-336l-260 440l-108 -123v-317h-275v317l-108 123l-260 -440h-336zM504 1481h114q14 -72 70 -103q55 -33 141 -32q86 0 142 32q55 31 69 103h115q0 -80 -25 -135t-67 -91 q-43 -37 -102 -53q-61 -16 -132 -16q-72 0 -131 16t-102 53q-43 35 -68 91q-25 55 -24 135z" />
<glyph unicode="&#x4c7;" horiz-adv-x="1503" d="M162 0v1489h289v-594h612v594h287v-1655q0 -68 -39 -127q-55 -76 -150 -106q-57 -18 -141 -19l-109 4v215l125 17v-2q27 8 27 30v793h-612v-639h-289z" />
<glyph unicode="&#x4c8;" horiz-adv-x="1157" d="M125 0v1102h268v-412h373v412h268v-1268q0 -68 -41 -127q-53 -76 -147 -106q-57 -18 -141 -19l-109 4v215l141 17v-2q29 8 29 30v607h-373v-453h-268z" />
<glyph unicode="&#x4cf;" horiz-adv-x="569" d="M137 0v1090h289v-1090h-289z" />
<glyph unicode="&#x4d0;" horiz-adv-x="1402" d="M-12 0l553 1462h329l547 -1462h-334l-110 326h-547l-115 -326h-323zM365 1903h114q14 -72 74 -109q59 -37 145 -37t146 37q59 37 74 109h114q0 -160 -92 -238t-242 -78q-149 0 -241 78t-92 238zM510 565h379l-184 537h-5z" />
<glyph unicode="&#x4d1;" d="M66 289q0 90 32 149q31 57 82 92q49 35 115 54q63 16 129 26t129 17q63 6 113 18q49 12 77 37q29 23 27 68q0 45 -14 73q-16 29 -41 45q-27 14 -60 21q-35 4 -73 4q-86 0 -136 -37q-49 -37 -57 -123h-291q6 100 52 170q45 68 114 109q70 41 156 59q86 16 176 16 q80 0 162 -10q82 -12 149 -45q68 -33 111 -92t43 -154v-550q0 -72 8 -138t29 -98h-295q-8 25 -12 51q-6 25 -9 51q-70 -72 -164 -100q-94 -29 -192 -29q-75 1 -141 19t-115 57t-76 98q-29 59 -28 142zM260 1481h115q14 -72 69 -103q55 -33 142 -32q86 0 141 32q55 31 70 103 h114q0 -80 -24 -135q-25 -55 -68 -91q-43 -37 -102 -53q-61 -16 -131 -16q-72 0 -131 16t-103 53q-43 35 -67 91q-25 55 -25 135zM356 301q0 -41 15 -65q14 -27 39 -41q25 -16 57 -23q33 -6 68 -6q86 0 133 29t69 69q23 39 29 80q4 41 4 66v108q-18 -16 -45 -24 q-27 -10 -59 -17q-33 -6 -68 -10t-70 -10t-65 -17q-31 -10 -53 -26q-25 -18 -39 -45t-15 -68z" />
<glyph unicode="&#x4d2;" horiz-adv-x="1402" d="M-12 0l553 1462h329l547 -1462h-334l-110 326h-547l-115 -326h-323zM352 1626v240h275v-240h-275zM510 565h379l-184 537h-5zM772 1626v240h277v-240h-277z" />
<glyph unicode="&#x4d3;" d="M66 289q0 90 32 149q31 57 82 92q49 35 115 54q63 16 129 26t129 17q63 6 113 18q49 12 77 37q29 23 27 68q0 45 -14 73q-16 29 -41 45q-27 14 -60 21q-35 4 -73 4q-86 0 -136 -37q-49 -37 -57 -123h-291q6 100 52 170q45 68 114 109q70 41 156 59q86 16 176 16 q80 0 162 -10q82 -12 149 -45q68 -33 111 -92t43 -154v-550q0 -72 8 -138t29 -98h-295q-8 25 -12 51q-6 25 -9 51q-70 -72 -164 -100q-94 -29 -192 -29q-75 1 -141 19t-115 57t-76 98q-29 59 -28 142zM240 1223v239h274v-239h-274zM356 301q0 -41 15 -65q14 -27 39 -41 q25 -16 57 -23q33 -6 68 -6q86 0 133 29t69 69q23 39 29 80q4 41 4 66v108q-18 -16 -45 -24q-27 -10 -59 -17q-33 -6 -68 -10t-70 -10t-65 -17q-31 -10 -53 -26q-25 -18 -39 -45t-15 -68zM659 1223v239h277v-239h-277z" />
<glyph unicode="&#x4d4;" horiz-adv-x="2009" d="M-20 0l696 1462h1241v-270h-680v-313h639v-250h-639v-359h696v-270h-1007v326h-459l-148 -326h-339zM573 565h353v627h-70z" />
<glyph unicode="&#x4d5;" horiz-adv-x="1857" d="M78 287q0 90 31 149q31 57 81 94q49 35 113 54q63 16 129 26l160 25q68 8 113 22q43 14 63 37t20 64t-16 67q-16 27 -43 43q-27 14 -59 21q-35 4 -70 4q-86 0 -141 -35q-57 -37 -62 -129h-291q4 100 50 170q43 68 112 111q68 41 158 59q88 18 180 18q45 0 96 -6 q49 -8 97 -24q47 -16 88 -43q41 -29 69 -70q61 72 144 109q82 35 211 34q131 0 225 -51q92 -53 152 -139q57 -88 84 -201q27 -115 26 -237h-756q-2 -53 15 -105q16 -53 49 -94t80 -67q47 -27 108 -27q98 0 148 45q49 43 63 121h283q-23 -86 -68 -152q-47 -68 -110 -112 q-66 -47 -144 -70q-80 -25 -166 -25q-115 0 -221 41t-174 138q-37 -49 -86 -82q-51 -35 -106 -56q-57 -23 -119 -30q-61 -10 -121 -11q-75 1 -145 17q-72 14 -127 51t-88 96q-35 59 -35 150zM369 303q0 -41 16 -65q14 -27 41 -43q25 -16 57 -23q31 -6 66 -6q39 0 82 12 t78 39t57 68q23 41 22 100v131q-41 -35 -110 -43q-70 -8 -139 -20q-70 -12 -119 -43q-51 -31 -51 -107zM1042 643h465q0 49 -14 94t-43 80q-31 35 -72 55q-43 20 -98 21q-55 0 -98 -21q-45 -20 -76 -55t-47 -80t-17 -94z" />
<glyph unicode="&#x4d6;" horiz-adv-x="1327" d="M141 0v1462h1094v-270h-772v-313h708v-250h-708v-359h788v-270h-1110zM369 1903h114q14 -72 74 -109q59 -37 145 -37t146 37q59 37 74 109h114q0 -160 -92 -238t-242 -78q-149 0 -241 78t-92 238z" />
<glyph unicode="&#x4d7;" d="M59 528q0 119 39 222q39 102 111 178q72 74 172 116q98 43 219 43q127 0 225 -47q96 -47 162 -125q63 -80 96 -184t33 -217v-27q0 -14 -2 -28h-764q6 -141 72 -205q66 -63 188 -64q88 0 152 46q63 43 78 92h256q-61 -190 -189 -273q-127 -82 -307 -82q-125 0 -225 41 q-100 39 -170 113t-107 176q-39 102 -39 225zM260 1481h115q14 -72 69 -103q55 -33 142 -32q86 0 141 32q55 31 70 103h114q0 -80 -24 -135q-25 -55 -68 -91q-43 -37 -102 -53q-61 -16 -131 -16q-72 0 -131 16t-103 53q-43 35 -67 91q-25 55 -25 135zM350 643h473 q-20 111 -71 168q-53 57 -160 57q-72 0 -117 -22q-45 -25 -72 -60q-29 -35 -38 -73q-12 -39 -15 -70z" />
<glyph unicode="&#x4d8;" horiz-adv-x="1531" d="M78 725l2 47q0 33 2 47h1051q-23 193 -127 303q-106 109 -263 109q-123 0 -213 -57q-92 -59 -120 -170h-306q14 106 68 196q53 90 137 158q82 66 193 102q109 37 235 37q168 0 301 -59t226 -162q92 -104 141 -244q49 -139 49 -299q0 -172 -49 -313q-51 -141 -141 -242 q-90 -100 -215 -155q-127 -55 -279 -56q-176 1 -305 60q-131 57 -217 159t-127 242q-43 137 -43 297zM414 569q10 -72 37 -133t71 -106q43 -45 105 -70q61 -27 141 -27q135 0 227 84t127 252h-708z" />
<glyph unicode="&#x4d9;" d="M61 602h764q-6 141 -71 205q-66 63 -189 63q-88 0 -151 -43q-63 -45 -78 -94h-256q61 190 188 273q127 82 307 81q125 0 226 -38q100 -41 170 -115t108 -176q37 -102 37 -226q0 -119 -39 -221t-110 -176q-72 -76 -170 -119q-100 -43 -222 -43q-135 1 -235 54 q-100 51 -164 139q-66 88 -94 201q-29 113 -21 235zM352 418q20 -111 74 -168q51 -57 158 -57q69 -1 116 24q45 23 74 57q27 35 39 74q10 39 12 70h-473z" />
<glyph unicode="&#x4da;" horiz-adv-x="1538" d="M92 838h1032q-18 152 -108 268q-51 63 -117 98q-66 33 -147 33q-74 0 -150 -41t-145 -115q-27 -29 -47 -71q-23 -45 -29 -52h-266q6 92 61 193q27 49 57 90q29 39 64 72q113 111 278 149v-2q86 23 195 23q274 0 463 -199q188 -197 188 -547q0 -168 -47 -309 q-49 -141 -139 -250q-96 -104 -221 -162q-127 -57 -279 -57t-299 74q-145 74 -223 190q-36 55 -61 121t-37 137v-2q-10 49 -17 142q-6 92 -6 217zM383 608q8 -49 23 -102l30 -113q133 -184 314 -184q63 0 127 39q61 37 118 106q47 61 78 127q31 63 43 127h-733zM393 1608 v237h260v-237h-260zM793 1608v237h262v-237h-262z" />
<glyph unicode="&#x4db;" horiz-adv-x="1138" d="M53 633h748l-2 41q-4 25 -13 53q-8 29 -24 59q-16 29 -41 54q-27 23 -64 39q-39 14 -92 14q-33 0 -63 -8q-33 -8 -60 -25q-27 -16 -47 -39q-23 -25 -35 -55h-292q8 39 24 82q14 41 43 80q27 39 66 76q39 35 94 61q53 27 125 43q70 14 158 14q111 0 204 -32 q92 -33 160 -103q68 -72 107 -182q37 -113 36 -273q0 -111 -28 -213q-31 -102 -92 -180q-63 -80 -160 -125q-98 -47 -236 -47q-145 0 -243 47q-100 47 -160 136q-61 86 -86 208q-27 123 -27 275zM225 1231v235h262v-235h-262zM348 444q0 -72 23 -118q20 -49 53 -78t72 -39 q39 -12 73 -12q35 0 74 12q39 10 72 39t55 78q20 47 21 118h-443zM627 1231v235h260v-235h-260z" />
<glyph unicode="&#x4dc;" horiz-adv-x="2172" d="M-12 0l583 866l-530 596h379l512 -602v602h309v-602l512 602h379l-530 -596l583 -866h-397l-389 639l-158 -178v-461h-309v461l-158 178l-391 -639h-395zM737 1626v240h275v-240h-275zM1157 1626v240h277v-240h-277z" />
<glyph unicode="&#x4dd;" horiz-adv-x="1662" d="M-10 0l405 651l-364 408h321l342 -422v422h275v-422l342 422h321l-370 -414l411 -645h-336l-260 440l-108 -123v-317h-275v317l-108 123l-260 -440h-336zM483 1223v239h275v-239h-275zM903 1223v239h277v-239h-277z" />
<glyph unicode="&#x4de;" horiz-adv-x="1325" d="M43 492h317q2 -74 29 -127q25 -53 68 -86q41 -35 98 -50q55 -16 121 -16q113 0 182 70q70 68 70 168q0 61 -23 102q-23 39 -61 63q-39 23 -88 31t-103 8h-110v217q18 -2 45 -2h41q264 0 264 199q0 86 -59 133q-61 47 -160 47q-119 0 -189 -57q-72 -57 -82 -164h-303 q2 123 50 211q47 88 126 145q78 57 183 86q102 27 217 27q111 0 207 -29q94 -31 164 -84q68 -53 108 -127q39 -76 39 -167q0 -111 -61 -191t-160 -102q57 -10 108 -39t88 -72q37 -45 60 -104q20 -59 20 -129q0 -106 -43 -195q-45 -90 -121 -154q-78 -66 -182 -100 q-104 -37 -227 -37q-301 0 -465 139q-164 137 -168 386zM313 1626v240h275v-240h-275zM733 1626v240h277v-240h-277z" />
<glyph unicode="&#x4df;" horiz-adv-x="1110" d="M45 344h277q8 -86 67 -131q57 -45 158 -45q98 0 143 41t45 100q0 66 -41 107q-43 41 -141 41h-113v182h76q92 0 148 29q53 29 53 108q0 47 -39 84q-41 35 -127 35q-88 0 -137 -29q-51 -31 -64 -116h-270q8 92 51 157q41 63 107 105q63 39 147 57q82 18 172 18 q211 0 328 -67q115 -70 114 -217q0 -47 -16 -86q-18 -41 -45 -72t-61 -49q-35 -20 -68 -27v-4q37 -4 78 -16q39 -14 71 -43q33 -31 56 -76q20 -47 20 -117q0 -86 -35 -149q-37 -63 -100 -107q-66 -43 -156 -63q-92 -20 -202 -21q-101 1 -189 21q-90 18 -157 63 q-68 45 -107 115q-41 70 -43 172zM207 1223v239h274v-239h-274zM627 1223v239h276v-239h-276z" />
<glyph unicode="&#x4e0;" horiz-adv-x="1228" d="M55 416h291q10 -86 53 -140q41 -55 142 -55q141 0 231 66q88 63 88 182q0 127 -29 203q-45 47 -163 61l-2 -2l-373 2l465 475h-680v267h1089v-226l-301 -315q90 -39 156 -115q135 -76 135 -356q0 -250 -172 -365q-174 -117 -438 -116q-262 0 -397 188q-84 115 -95 246z " />
<glyph unicode="&#x4e1;" horiz-adv-x="1128" d="M55 -6h291q10 -86 37 -139q27 -55 127 -56q141 0 197 74q53 74 53 193q0 127 -29 217q-45 47 -164 61l-2 -2l-272 2l364 475h-579v266h989v-225l-301 -315q90 -39 156 -115q137 -90 137 -371q0 -250 -144 -374q-145 -125 -407 -125q-264 0 -358 186q-84 117 -95 248z" />
<glyph unicode="&#x4e2;" horiz-adv-x="1525" d="M141 0v1462h320v-1013h6l557 1013h360v-1462h-319v1016h-6l-557 -1016h-361zM383 1665v154h762v-154h-762z" />
<glyph unicode="&#x4e3;" horiz-adv-x="1228" d="M111 0v1059h278v-717l399 717h330v-1059h-278v717l-400 -717h-329zM233 1262v153h762v-153h-762z" />
<glyph unicode="&#x4e4;" horiz-adv-x="1525" d="M141 0v1462h320v-1013h6l557 1013h360v-1462h-319v1016h-6l-557 -1016h-361zM414 1626v240h274v-240h-274zM834 1626v240h276v-240h-276z" />
<glyph unicode="&#x4e5;" horiz-adv-x="1228" d="M111 0v1059h278v-717l399 717h330v-1059h-278v717l-400 -717h-329zM266 1223v239h275v-239h-275zM686 1223v239h277v-239h-277z" />
<glyph unicode="&#x4e6;" horiz-adv-x="1593" d="M78 725q0 162 49 303t141 246q92 104 226 164q133 59 303 59q168 0 303 -59q133 -59 225 -164q92 -104 141 -246q49 -141 50 -303q0 -160 -50 -297q-49 -139 -141 -242q-92 -102 -225 -159q-135 -59 -303 -60q-170 1 -303 60q-133 57 -226 159q-92 102 -141 242 q-49 137 -49 297zM399 725q0 -92 23 -178q20 -88 67 -158t123 -110q76 -43 185 -43q108 0 184 43q76 41 123 110q47 70 70 158q20 86 20 178q0 96 -20 186q-23 90 -70 162q-47 70 -123 113q-76 41 -184 41q-109 0 -185 -41q-76 -43 -123 -113q-47 -72 -67 -162 q-23 -90 -23 -186zM449 1626v240h274v-240h-274zM868 1626v240h277v-240h-277z" />
<glyph unicode="&#x4e7;" horiz-adv-x="1251" d="M78 528q0 127 39 232q39 102 110 176q72 72 172 113q100 39 226 38q125 0 227 -38q100 -41 172 -113q72 -74 111 -176q39 -104 39 -232q0 -127 -39 -229t-111 -174q-72 -74 -172 -113q-102 -39 -227 -39q-126 0 -226 39t-172 113q-72 72 -110 174q-39 102 -39 229z M276 1223v239h275v-239h-275zM369 528q0 -63 12 -122q12 -61 43 -109q29 -49 78 -78t123 -29t125 29q49 29 79 78q29 47 41 109q12 59 13 122q0 63 -13 125q-12 61 -41 109q-31 47 -79 78q-51 29 -125 28q-74 0 -123 -28q-49 -31 -78 -78q-31 -47 -43 -109q-12 -61 -12 -125 zM696 1223v239h277v-239h-277z" />
<glyph unicode="&#x4e8;" horiz-adv-x="1593" d="M78 725q0 162 49 303t141 246q92 104 226 164q133 59 303 59q168 0 303 -59q133 -59 225 -164q92 -104 141 -246q49 -141 50 -303q0 -160 -50 -297q-49 -139 -141 -242q-92 -102 -225 -159q-135 -59 -303 -60q-170 1 -303 60q-133 57 -226 159q-92 102 -141 242 q-49 137 -49 297zM395 637q8 -80 37 -154q27 -76 76 -131q49 -57 121 -90q70 -35 168 -35t170 35q70 33 118 90q47 55 74 131q27 74 37 154h-801zM403 870h787q-14 76 -43 144q-31 66 -78 114q-49 49 -117 78t-155 29q-90 0 -158 -29t-115 -78q-49 -49 -78 -114 q-31 -68 -43 -144z" />
<glyph unicode="&#x4e9;" horiz-adv-x="1251" d="M78 528q0 127 39 232q39 102 110 176q72 72 172 113q100 39 226 38q125 0 227 -38q100 -41 172 -113q72 -74 111 -176q39 -104 39 -232q0 -127 -39 -229t-111 -174q-72 -74 -172 -113q-102 -39 -227 -39q-126 0 -226 39t-172 113q-72 72 -110 174q-39 102 -39 229z M365 453q6 -55 24 -105q16 -49 47 -86t78 -57q45 -23 111 -23q65 0 112 23q47 20 78 57t49 86q16 49 23 105h-522zM371 647h510q-10 47 -29 90q-20 41 -51 72t-74 49t-102 19q-59 0 -103 -19q-43 -18 -73 -49q-31 -31 -50 -72q-18 -43 -28 -90z" />
<glyph unicode="&#x4ea;" horiz-adv-x="1622" d="M76 725q0 147 43 281q43 133 123 241q100 127 245 197q143 68 324 67q182 0 326 -65q141 -66 241 -193q80 -106 125 -237q43 -133 43 -283q0 -295 -168 -518q-203 -258 -567 -258q-356 0 -561 252q-174 217 -174 516zM383 612q12 -68 37 -127q23 -59 55 -106h-2 q121 -166 338 -166q223 0 340 166h-2q31 47 53 106q23 59 35 127h-854zM383 856h854q-27 139 -86 234q-119 164 -340 163q-217 0 -338 -166h2q-31 -45 -53 -104q-25 -59 -39 -127zM459 1638v238h262v-238h-262zM858 1638v238h262v-238h-262z" />
<glyph unicode="&#x4eb;" horiz-adv-x="1157" d="M55 545q0 111 27 209q25 98 76 176q68 96 170 149q102 51 241 51q140 0 244 -51q102 -53 168 -149q49 -76 76 -174q25 -98 24 -211q0 -115 -24 -211q-27 -98 -76 -176q-66 -98 -168 -150q-104 -51 -244 -51q-279 0 -413 201q-100 152 -101 387zM262 1237v238h262v-238 h-262zM346 428q10 -39 25 -74q12 -37 24 -57h2q66 -102 172 -102t172 102h-2q14 23 29 57q12 35 23 74h-445zM346 672h442q-10 35 -22 65q-14 31 -27 54q-66 102 -170 102q-123 0 -186 -113h2q-10 -20 -18 -45q-10 -25 -21 -63zM664 1237v238h260v-238h-260z" />
<glyph unicode="&#x4ec;" horiz-adv-x="1503" d="M90 1014q18 115 70 207q49 92 129 155t188 99q106 33 240 32q111 0 205 -28q94 -29 170 -80q74 -51 131 -121q55 -72 92 -156q37 -86 57 -180q18 -96 19 -197q0 -162 -33 -282q-33 -121 -86 -207q-53 -88 -123 -143q-70 -57 -143 -90q-76 -33 -150 -46q-74 -14 -135 -14 q-135 0 -242 41q-109 39 -186 109q-80 68 -129 161q-49 94 -72 201h307q16 -45 41 -88q23 -45 60 -80q35 -35 86 -55q49 -23 116 -23q86 0 156 29q68 29 115 80q47 49 71 119q25 70 25 157h-440v242h438q0 35 -8 78q-10 41 -29 84q-18 43 -47 84q-31 39 -72 69 q-41 31 -96 52q-55 18 -125 18q-72 0 -123 -22q-51 -25 -84 -58q-35 -35 -55 -74t-31 -73h-307zM408 1659v235h262v-235h-262zM809 1659v235h260v-235h-260z" />
<glyph unicode="&#x4ed;" horiz-adv-x="1042" d="M80 399h295q0 -27 12 -59q10 -35 35 -64t61 -47q35 -20 84 -20t88 18t66 52q27 31 43 73q14 43 20 92h-270v189h270q-4 49 -16 94q-14 45 -39 80q-27 33 -63 53q-37 20 -86 21q-47 0 -78 -11q-33 -12 -56 -34q-23 -23 -36 -56q-14 -33 -23 -75h-295q6 82 31 145 q25 61 63 108q37 47 84 78t101 51q51 18 104 27q53 8 105 8q115 0 208 -37q92 -39 158 -112q63 -74 98 -180q35 -109 35 -248t-32 -246q-35 -109 -99 -182q-66 -74 -162 -111q-96 -39 -219 -39q-96 0 -168 25q-74 25 -129 63q-55 37 -90 86q-37 49 -59 99q-23 47 -31 90 q-10 41 -10 69zM248 1280v238h260v-238h-260zM647 1280v238h260v-238h-260z" />
<glyph unicode="&#x4ee;" horiz-adv-x="1325" d="M-10 1462h354l336 -762l317 762h342l-491 -1077q-51 -111 -100 -188q-49 -80 -105 -129q-57 -49 -125 -72t-156 -23q-53 1 -100 11q-49 8 -78 16v260q59 -16 154 -16q74 0 111 39q37 37 36 86q0 47 -22 98zM281 1665v154h761v-154h-761z" />
<glyph unicode="&#x4ef;" horiz-adv-x="1062" d="M-10 1059h309l240 -725h4l231 725h301l-442 -1190q-47 -129 -131 -184t-234 -56q-45 0 -88 4q-45 2 -90 7v239q35 -4 74 -6q37 -4 74 -4q66 0 100 37q35 37 35 94q0 35 -13 66zM150 1262v153h761v-153h-761z" />
<glyph unicode="&#x4f0;" horiz-adv-x="1325" d="M-10 1462h354l336 -762l317 762h342l-491 -1077q-51 -111 -100 -188q-49 -80 -105 -129q-57 -49 -125 -72t-156 -23q-53 1 -100 11q-49 8 -78 16v260q59 -16 154 -16q74 0 111 39q37 37 36 86q0 47 -22 98zM313 1626v240h275v-240h-275zM733 1626v240h277v-240h-277z" />
<glyph unicode="&#x4f1;" horiz-adv-x="1062" d="M-10 1059h309l240 -725h4l231 725h301l-442 -1190q-47 -129 -131 -184t-234 -56q-45 0 -88 4q-45 2 -90 7v239q35 -4 74 -6q37 -4 74 -4q66 0 100 37q35 37 35 94q0 35 -13 66zM182 1223v239h275v-239h-275zM602 1223v239h277v-239h-277z" />
<glyph unicode="&#x4f2;" horiz-adv-x="1325" d="M-10 1462h354l336 -762l317 762h342l-491 -1077q-51 -111 -100 -188q-49 -80 -105 -129q-57 -49 -125 -72t-156 -23q-53 1 -100 11q-49 8 -78 16v260q59 -16 154 -16q74 0 111 39q37 37 36 86q0 47 -22 98zM317 1593l185 291h321l-305 -291h-201zM739 1593l187 291h321 l-305 -291h-203z" />
<glyph unicode="&#x4f3;" horiz-adv-x="1062" d="M-10 1059h309l240 -725h4l231 725h301l-442 -1190q-47 -129 -131 -184t-234 -56q-45 0 -88 4q-45 2 -90 7v239q35 -4 74 -6q37 -4 74 -4q66 0 100 37q35 37 35 94q0 35 -13 66zM195 1190l184 291h321l-305 -291h-200zM616 1190l187 291h321l-305 -291h-203z" />
<glyph unicode="&#x4f4;" horiz-adv-x="1382" d="M82 1024v438h319v-442q0 -133 54 -186q51 -53 174 -54q33 0 76 4t83 11q41 4 76 10q35 4 54 8v649h321v-1462h-321v555q-27 -6 -66 -12q-41 -8 -84 -15q-45 -6 -88 -10t-76 -4q-123 0 -219 27q-98 27 -164 88q-68 59 -102 157q-37 96 -37 238zM342 1626v240h274v-240 h-274zM762 1626v240h276v-240h-276z" />
<glyph unicode="&#x4f5;" d="M82 731v328h289v-268q0 -115 32 -160q33 -47 129 -47q27 0 62 4q35 2 70 6q33 4 63 10l47 10v445h291v-1059h-291v406q-20 -6 -57 -13l-82 -16q-47 -8 -98 -12q-51 -6 -101 -7q-178 0 -266 101q-88 100 -88 272zM240 1223v239h274v-239h-274zM659 1223v239h277v-239h-277 z" />
<glyph unicode="&#x4f6;" horiz-adv-x="1241" d="M172 0v1489h1051v-256h-762v-977h110v-575h-286v319h-113z" />
<glyph unicode="&#x4f7;" horiz-adv-x="892" d="M117 0v1102h749v-238h-481v-635h86v-483h-268v254h-86z" />
<glyph unicode="&#x4f8;" horiz-adv-x="1902" d="M141 0v1462h322v-528h303q111 0 205 -27q94 -29 164 -86t110 -145q39 -88 39 -207q0 -121 -39 -209t-108 -145q-72 -59 -170 -86q-98 -29 -217 -29h-609zM463 262h262q117 0 182 47q66 47 66 164q0 57 -19 98q-18 39 -51 64q-35 25 -80 37q-47 10 -100 10h-260v-420z M602 1626v240h275v-240h-275zM1022 1626v240h276v-240h-276zM1440 0v1462h321v-1462h-321z" />
<glyph unicode="&#x4f9;" horiz-adv-x="1593" d="M111 0v1059h290v-365h281q80 0 152 -20q70 -23 122 -66q51 -45 82 -108q31 -66 31 -152q0 -88 -29 -153q-31 -66 -84 -109q-55 -43 -127 -63q-74 -23 -159 -23h-559zM401 201h199q80 0 129 35q47 35 47 112q0 78 -51 115q-51 35 -127 35h-197v-297zM449 1223v239h274 v-239h-274zM868 1223v239h277v-239h-277zM1194 0v1059h289v-1059h-289z" />
<glyph unicode="&#x4fe;" horiz-adv-x="1388" d="M-8 0l434 627h-313v268h319l-403 594h348l328 -485l59 83q29 43 55 87q27 35 53 75l162 240h352l-413 -594h313v-268h-313l434 -627h-356l-346 520l-359 -520h-354z" />
<glyph unicode="&#x4ff;" horiz-adv-x="1042" d="M-31 0l301 436h-243v271h235l-100 145q-31 43 -62 90l-61 90l-51 70h315l217 -309l215 309h314l-281 -395h233v-271h-245l243 -358q31 -45 52 -78h-312l-227 330l-174 -248q-31 -43 -55 -82h-314z" />
<glyph unicode="&#x2000;" horiz-adv-x="967" />
<glyph unicode="&#x2001;" horiz-adv-x="1935" />
<glyph unicode="&#x2002;" horiz-adv-x="967" />
<glyph unicode="&#x2003;" horiz-adv-x="1935" />
<glyph unicode="&#x2004;" horiz-adv-x="645" />
<glyph unicode="&#x2005;" horiz-adv-x="483" />
<glyph unicode="&#x2006;" horiz-adv-x="322" />
<glyph unicode="&#x2007;" horiz-adv-x="322" />
<glyph unicode="&#x2008;" horiz-adv-x="241" />
<glyph unicode="&#x2009;" horiz-adv-x="387" />
<glyph unicode="&#x200a;" horiz-adv-x="107" />
<glyph unicode="&#x2010;" horiz-adv-x="833" d="M109 434h616v250h-616v-250z" />
<glyph unicode="&#x2011;" horiz-adv-x="833" d="M109 434h616v250h-616v-250z" />
<glyph unicode="&#x2012;" horiz-adv-x="833" d="M109 434h616v250h-616v-250z" />
<glyph unicode="&#x2013;" horiz-adv-x="1024" d="M0 434h1024v250h-1024v-250z" />
<glyph unicode="&#x2014;" horiz-adv-x="2048" d="M266 434h1516v250h-1516v-250z" />
<glyph unicode="&#x2018;" horiz-adv-x="569" d="M139 805h291v315h-135q0 76 29 129q29 51 106 78v135q-63 -8 -117 -37q-55 -31 -94 -75q-39 -45 -59 -105q-23 -59 -21 -127v-313z" />
<glyph unicode="&#x2019;" horiz-adv-x="569" d="M139 805q63 8 119 39q53 29 92 74t62 104q20 59 18 127v313h-291v-315h135q0 -76 -28 -127q-29 -53 -107 -80v-135z" />
<glyph unicode="&#x201a;" horiz-adv-x="569" d="M139 0h135q0 -74 -28 -125q-29 -53 -107 -80v-135q63 8 119 39q53 29 92 76q39 45 62 104q20 57 18 123v313h-291v-315z" />
<glyph unicode="&#x201c;" horiz-adv-x="948" d="M111 805h290v315h-135q0 76 29 129q29 51 106 78v135q-63 -8 -116 -37q-55 -31 -95 -75q-39 -45 -59 -105q-23 -59 -20 -127v-313zM547 805h291v315h-136q0 76 29 129q29 51 107 78v135q-63 -8 -117 -37q-55 -31 -94 -75q-39 -45 -60 -105q-23 -59 -20 -127v-313z" />
<glyph unicode="&#x201d;" horiz-adv-x="948" d="M111 805q63 8 118 39q53 29 93 74q39 45 61 104q20 59 18 127v313h-290v-315h135q0 -76 -29 -127q-29 -53 -106 -80v-135zM547 805q63 8 119 39q53 29 92 74t61 104q20 59 19 127v313h-291v-315h135q0 -76 -29 -127q-29 -53 -106 -80v-135z" />
<glyph unicode="&#x201e;" horiz-adv-x="948" d="M111 0h135q0 -74 -29 -125q-29 -53 -106 -80v-135q63 8 118 39q53 29 93 76q39 45 61 104q20 57 18 123v313h-290v-315zM547 0h135q0 -74 -29 -125q-29 -53 -106 -80v-135q63 8 119 39q53 29 92 76q39 45 61 104q20 57 19 123v313h-291v-315z" />
<glyph unicode="&#x2022;" horiz-adv-x="716" d="M145 733q0 96 64 160q61 61 158 61q96 0 159 -61q61 -63 62 -160q-1 -95 -62 -158q-63 -63 -159 -63t-158 63q-63 63 -64 158z" />
<glyph unicode="&#x2026;" horiz-adv-x="2048" d="M180 0h322v315h-322v-315zM862 0h322v315h-322v-315zM1544 0h322v315h-322v-315z" />
<glyph unicode="&#x202f;" horiz-adv-x="387" />
<glyph unicode="&#x2039;" horiz-adv-x="493" d="M86 420l322 -256v246l-185 147l185 145v246l-322 -252v-276z" />
<glyph unicode="&#x203a;" horiz-adv-x="493" d="M86 164l322 256v276l-322 252v-246l184 -145l-184 -147v-246z" />
<glyph unicode="&#x205f;" horiz-adv-x="483" />
<glyph unicode="&#x20ac;" horiz-adv-x="1138" d="M31 784h149q-2 -4 -2 -32v-54h-82l-63 -147h157q43 -268 187 -418q158 -166 416 -166q178 0 315 80l2 309q-162 -129 -315 -129q-238 0 -303 324h356l63 147h-436l2 86h459l63 148h-499q72 281 286 280q125 0 269 -92l125 256q-201 102 -373 103q-244 0 -406 -156 q-154 -143 -202 -391h-105z" />
<glyph unicode="&#x2122;" horiz-adv-x="2048" d="M127 1298h240v-680h208v680h240v164h-688v-164zM924 618h196v599h4l217 -599h142l217 599h4v-599h197v844h-277l-211 -555l-211 555h-278v-844z" />
<glyph unicode="&#xe000;" horiz-adv-x="1054" d="M0 0v1055h1055v-1055h-1055z" />
</font>
</defs>
</svg>
